<svg width="32" height="33" viewBox="0 0 32 33" fill="none" xmlns="http://www.w3.org/2000/svg">
<g id="sunny 1" clip-path="url(#clip0_55_315)">
<path id="Vector" d="M31.7346 19.2696L28.3116 16.2501L31.6136 13.1001C31.7349 12.9844 31.7848 12.8132 31.7448 12.6508C31.7046 12.4885 31.5804 12.3599 31.4191 12.3133L27.0243 11.045L28.6486 6.7915C28.7083 6.63525 28.6795 6.45925 28.5733 6.32969C28.4671 6.20019 28.2994 6.13688 28.1334 6.16363L23.6163 6.89188L23.2489 2.35682C23.2354 2.19019 23.1336 2.04338 22.9818 1.97175C22.8299 1.90013 22.6511 1.91444 22.5128 2.00932L18.7461 4.59319L16.4581 0.652942C16.374 0.508192 16.2187 0.419067 16.0506 0.419067C15.8825 0.419067 15.7272 0.508192 15.6431 0.652942L13.0167 5.17594L8.47357 2.55388C8.32814 2.46994 8.14876 2.46957 8.00307 2.55275C7.85726 2.63594 7.76726 2.79019 7.76682 2.95732L7.75582 7.507L3.19551 7.13113C3.02833 7.11738 2.86583 7.19344 2.77008 7.33075C2.67426 7.46807 2.65939 7.64582 2.7312 7.79694L4.68383 11.9116L0.401763 13.5167C0.244513 13.5756 0.130825 13.7136 0.10345 13.8785C0.0760754 14.0434 0.139388 14.2103 0.26945 14.3162L3.80814 17.2007L0.632325 20.4763C0.5157 20.5966 0.472388 20.7697 0.518825 20.9303C0.565325 21.0909 0.69445 21.2147 0.857513 21.2549L5.29845 22.3519L3.84251 26.6651C3.78901 26.8235 3.82464 26.9983 3.93589 27.1236C4.0472 27.2489 4.21726 27.3056 4.38195 27.2724L8.86695 26.3698L9.41201 30.8871C9.43195 31.0531 9.53957 31.1958 9.69407 31.2615C9.8487 31.3273 10.0268 31.306 10.1613 31.2058L13.8235 28.4779L16.2644 32.2008C16.3508 32.3369 16.5013 32.419 16.6624 32.419C16.6685 32.419 16.6746 32.4189 16.6808 32.4186C16.8488 32.4121 17.0005 32.317 17.0788 32.1691L19.2105 28.2688L23.0754 30.7047C23.2175 30.7942 23.3965 30.8016 23.5456 30.7241C23.6944 30.6466 23.7905 30.4959 23.7974 30.3289L23.9869 25.7831L28.529 26.3356C28.6955 26.3558 28.8609 26.2861 28.962 26.1526C29.0631 26.0191 29.0849 25.8421 29.0191 25.6883L27.2294 21.5009L31.5709 20.0633C31.7304 20.0104 31.8494 19.8771 31.8833 19.7133C31.917 19.5497 31.8603 19.3805 31.7346 19.2696Z" fill="#FFA600"/>
<path id="Vector_2" d="M15.892 26.0216C21.2446 26.0216 25.5838 21.6858 25.5838 16.3373C25.5838 10.9888 21.2446 6.65295 15.892 6.65295C10.5394 6.65295 6.2002 10.9888 6.2002 16.3373C6.2002 21.6858 10.5394 26.0216 15.892 26.0216Z" fill="#FFDB2D"/>
<path id="Vector_3" d="M15.8923 6.65302C15.6496 6.65302 15.4091 6.6622 15.1709 6.67977C20.1865 7.04858 24.1412 11.2313 24.1412 16.3373C24.1412 21.4433 20.1865 25.626 15.1709 25.9949C15.4091 26.0124 15.6496 26.0216 15.8923 26.0216C21.2449 26.0216 25.5841 21.6858 25.5841 16.3374C25.5841 10.9888 21.2449 6.65302 15.8923 6.65302Z" fill="#FFCA00"/>
</g>
<defs>
<clipPath id="clip0_55_315">
<rect width="32" height="32" fill="white" transform="translate(-0.00488281 0.419067)"/>
</clipPath>
</defs>
</svg>
