<svg width="2067" height="1505" viewBox="0 0 2067 1505" fill="none" xmlns="http://www.w3.org/2000/svg">
<g filter="url(#filter0_d_76_124152)">
<path d="M279.784 1464.5C279.784 1464.5 -324.267 -100.809 784.232 5.14616C1259.01 50.5272 1170.38 325.844 1380.07 583.446C1515.98 750.421 1777.39 613.825 1875.35 759.733C1973.32 905.641 1858.2 1321.68 1817.81 1464.5L279.784 1464.5Z" fill="#E5F0F8"/>
<path d="M1710.15 30.4141H1008.72C1000.42 30.4141 993.685 41.436 993.685 55.032V112.031V619.142H1725.18V112.03V55.0311C1725.18 41.4361 1718.45 30.4141 1710.15 30.4141Z" fill="#BBDBF3"/>
<path d="M1715.4 85.7432H1003.46V610.077H1715.4V85.7432Z" fill="#E5F0F8"/>
<path d="M1034.1 139.379V133.872L1065.89 116.666V125.078L1044.66 136.626L1065.89 148.174V156.586L1034.1 139.379Z" fill="white"/>
<path d="M1653.58 596.475V588.064L1674.81 576.516L1653.58 564.968V556.557L1685.37 573.763V579.27L1653.58 596.475Z" fill="white"/>
<path d="M1204.12 130.131H1077.68V143.121H1204.12V130.131Z" fill="white"/>
<path d="M1160.54 180.328H1034.1V193.318H1160.54V180.328Z" fill="white"/>
<path d="M1187.47 215.297H1061.03V228.287H1187.47V215.297Z" fill="white"/>
<path d="M1187.47 311.541H1061.03V324.531H1187.47V311.541Z" fill="white"/>
<path d="M1187.47 341.313H1061.03V354.303H1187.47V341.313Z" fill="white"/>
<path d="M1485.78 248.602H1104.48V261.592H1485.78V248.602Z" fill="white"/>
<path d="M1613.87 372.944H1104.48V385.934H1613.87V372.944Z" fill="white"/>
<path d="M1613.87 472.531H1104.48V485.521H1613.87V472.531Z" fill="white"/>
<path d="M1640.41 570.021H1152.39V583.01H1640.41V570.021Z" fill="white"/>
<path d="M1213.58 506.369H1104.48V519.359H1213.58V506.369Z" fill="white"/>
<path d="M1213.58 538.556H1104.48V551.546H1213.58V538.556Z" fill="white"/>
<path d="M1613.87 404.734H1104.48V417.724H1613.87V404.734Z" fill="white"/>
<path d="M1380.08 436.524H1104.48V449.514H1380.08V436.524Z" fill="white"/>
<path d="M1221.4 278.537H1104.48V291.527H1221.4V278.537Z" fill="white"/>
<path d="M243.458 1469.75C243.458 1469.75 213.811 1351.49 139.909 1314.99C66.0075 1278.49 -12.8695 1328.46 7.15947 1381C24.4295 1426.31 95.4465 1370.6 150.701 1392.51C205.956 1414.41 214.666 1469.75 214.666 1469.75L243.458 1469.75Z" fill="#40A87B"/>
<path d="M276.609 1466.02C276.609 1466.02 297.529 1069.62 108.193 1120.7C-81.1426 1171.79 255.886 1385.43 255.599 1466.02H276.609Z" fill="#6ADB6A"/>
<path d="M1812.59 1467.87C1812.59 1467.87 1843.59 1344.21 1920.87 1306.05C1998.14 1267.88 2080.62 1320.13 2059.68 1375.07C2041.62 1422.45 1967.36 1364.2 1909.58 1387.1C1851.81 1410.01 1842.7 1467.87 1842.7 1467.87L1812.59 1467.87Z" fill="#40A87B"/>
<path d="M1777.93 1463.98C1777.93 1463.98 1756.05 1049.48 1954.03 1102.89C2152.01 1156.3 1799.6 1379.7 1799.9 1463.98H1777.93Z" fill="#6ADB6A"/>
<path d="M182.337 562.853L145.204 592.771C141.339 595.885 139.434 601.14 140.297 606.309L282.423 1458.33H333.683L182.337 562.853Z" fill="#93ACBF"/>
<path d="M333.682 1458.33H1302.31L1144.07 573.346C1142.52 564.678 1135.59 558.426 1127.53 558.426H193.259C182.645 558.426 174.671 569.038 176.711 580.447L333.682 1458.33Z" fill="#BBDBF3"/>
<path d="M228.383 602.342L231.141 617.836L363.431 1357.67L1237.55 1357.43H1250.32L1115.3 602.342H228.383Z" fill="#93ACBF"/>
<path d="M231.141 617.836L363.431 1357.67L1237.55 1357.43L1102.5 617.836H231.141Z" fill="white"/>
<path d="M686.69 1458.33L1649.72 1458.33V1390.78H686.69V1458.33Z" fill="#BBDBF3"/>
<path d="M284.369 1458.33H754.096V1402.05C754.096 1395.83 749.054 1390.79 742.835 1390.79H284.369V1458.33Z" fill="#93ACBF"/>
<path d="M675.724 583.027C676.288 589.487 679.772 594.408 683.508 594.017C687.243 593.626 689.815 588.072 689.251 581.611C688.687 575.15 685.203 570.23 681.467 570.621C677.732 571.013 675.16 576.567 675.724 583.027Z" fill="#586773"/>
<path d="M1102.86 621.782L1237.53 1357.59H363.155L231.845 621.782H1102.86Z" fill="#E5F0F8"/>
<path d="M1102.14 617.836L1113.74 681.205H242.45L231.141 617.836H1102.14Z" fill="#BBDBF3"/>
<path d="M966.376 470.868C966.376 360.831 940.522 267.857 908.867 195.238H793.463V669.078H954.933C962.659 610.685 966.376 544.576 966.376 470.868Z" fill="white"/>
<path d="M679.97 195.238C648.32 267.852 622.472 360.831 622.472 470.868C622.472 544.576 626.188 610.685 633.914 669.078H793.463V195.238H679.97Z" fill="#BBDBF3"/>
<path d="M793.463 423.504C758.337 423.504 729.759 394.925 729.759 359.799C729.759 324.673 758.336 296.094 793.463 296.094C828.589 296.094 857.168 324.673 857.168 359.799C857.168 394.925 828.59 423.504 793.463 423.504Z" fill="#F74242"/>
<path d="M793.463 404.756C768.674 404.756 748.507 384.588 748.507 359.798C748.507 335.009 768.674 314.84 793.463 314.84C818.252 314.84 838.422 335.008 838.422 359.798C838.423 384.588 818.253 404.756 793.463 404.756Z" fill="#BBDBF3"/>
<path d="M818.613 384.961C832.509 371.065 832.509 348.535 818.613 334.638C804.716 320.742 782.186 320.742 768.29 334.638C754.393 348.535 754.393 371.065 768.29 384.961C782.186 398.858 804.716 398.858 818.613 384.961Z" fill="white"/>
<path d="M793.463 604.697C758.337 604.697 729.759 576.118 729.759 540.992C729.759 505.866 758.336 477.287 793.463 477.287C828.589 477.287 857.168 505.866 857.168 540.992C857.168 576.118 828.59 604.697 793.463 604.697Z" fill="#F74242"/>
<path d="M793.463 585.949C768.673 585.949 748.507 565.781 748.507 540.991C748.507 516.201 768.674 496.033 793.463 496.033C818.252 496.033 838.422 516.201 838.422 540.991C838.422 565.781 818.253 585.949 793.463 585.949Z" fill="#BBDBF3"/>
<path d="M793.463 576.575C813.116 576.575 829.047 560.644 829.047 540.991C829.047 521.339 813.116 505.407 793.463 505.407C773.811 505.407 757.879 521.339 757.879 540.991C757.879 560.644 773.811 576.575 793.463 576.575Z" fill="white"/>
<path d="M999.054 959.685H959.373C932.731 959.685 911.133 938.087 911.133 911.445V776.84H963.872C983.303 776.84 999.054 792.592 999.054 812.022V959.685Z" fill="#BBDBF3"/>
<path d="M675.802 776.849V911.451C675.802 938.087 654.187 959.68 627.552 959.68H587.878V812.019C587.878 792.602 603.631 776.849 623.048 776.849H675.802Z" fill="#93ACBF"/>
<path d="M652.981 776.849V911.451C652.981 938.087 631.388 959.68 604.73 959.68H587.878V812.019C587.878 792.602 603.631 776.849 623.048 776.849H652.981Z" fill="#BBDBF3"/>
<path d="M794.424 16.6729C794.424 16.6729 794.081 17.0139 793.464 17.6489V195.238H908.867C858.88 80.5649 794.424 16.6729 794.424 16.6729Z" fill="#F74242"/>
<path d="M793.463 17.6484C785.354 25.9864 726.414 88.6824 679.97 195.237H793.463V17.6484Z" fill="#E62C2C"/>
<path d="M793.463 937.877C793.783 937.884 794.117 937.898 794.423 937.898C813.633 937.898 860.523 923.467 875.342 903.663C905.261 863.679 927.274 809.828 942.161 742.604H793.463V937.877Z" fill="white"/>
<path d="M713.505 903.663C728.087 923.151 773.707 937.425 793.464 937.877V742.605H646.687C661.574 809.828 683.586 863.679 713.505 903.663Z" fill="#BBDBF3"/>
<path d="M646.687 742.605H793.464V669.078H633.915C637.362 695.133 641.605 719.657 646.687 742.605Z" fill="#E62C2C"/>
<path d="M793.463 669.079V742.606H942.161C947.243 719.657 951.486 695.133 954.933 669.079H793.463Z" fill="#F74242"/>
<path d="M1167.21 1221.17C1102.53 1167.38 1018.73 1227.27 1018.73 1227.27C1018.73 1227.27 981.968 1094.5 894.223 1136.01C824.436 1168.98 830.392 1024.26 835.716 963.587V963.557C837.1 947.915 838.423 937.897 838.423 937.897L740.12 947.494C740.12 947.494 741.323 953.45 742.887 963.557V963.587C751.129 1016.74 765.898 1221.98 681.252 1226.94C580.482 1232.87 610.653 1138.81 535.812 1138.14C484.465 1137.69 447.375 1180.74 418.558 1226.94C394.193 1266.02 363.42 1357.67 363.42 1357.67H1237.56C1237.56 1357.67 1201.89 1250.01 1167.21 1221.17ZM498.785 1185.1C454.747 1218.46 403.67 1308.76 402.076 1311.59C403.189 1308.46 439.105 1208.92 488.167 1175.99C538.011 1142.51 572.393 1167.77 581.838 1185.1C581.838 1185.1 546.222 1149.12 498.785 1185.1ZM824.287 1095.82C821.58 1083.58 819.715 1071.12 818.481 1058.61C817.278 1046.1 817.007 1033.49 817.609 1020.92C818.241 1008.35 820.136 995.833 823.355 983.74C822.603 996.254 822.062 1008.62 822.302 1021.01C822.302 1024.11 822.543 1027.21 822.603 1030.27C822.693 1033.37 822.783 1036.47 823.054 1039.57L823.625 1048.8L824.467 1058.07C826.753 1082.74 830.543 1107.22 834.905 1131.89C830.333 1120.19 826.994 1108.06 824.287 1095.82Z" fill="white"/>
<path d="M853.167 963.575H735.68C719.995 963.575 707.281 950.86 707.281 935.176V897.67H881.567V935.176C881.567 950.86 868.852 963.575 853.167 963.575Z" fill="#BBDBF3"/>
<path d="M667.014 1180.41C667.797 1175.6 664.533 1171.07 659.725 1170.29C654.916 1169.51 650.384 1172.77 649.602 1177.58C648.819 1182.39 652.083 1186.92 656.891 1187.7C661.7 1188.48 666.232 1185.22 667.014 1180.41Z" fill="white"/>
<path d="M692.395 1188.53C692.395 1190.42 690.863 1191.95 688.973 1191.95C687.083 1191.95 685.551 1190.42 685.551 1188.53C685.551 1186.64 687.083 1185.11 688.973 1185.11C690.863 1185.11 692.395 1186.64 692.395 1188.53Z" fill="white"/>
<path d="M699.453 1154.73C699.453 1158.57 696.341 1161.68 692.502 1161.68C688.663 1161.68 685.551 1158.57 685.551 1154.73C685.551 1150.89 688.663 1147.78 692.502 1147.78C696.341 1147.78 699.453 1150.89 699.453 1154.73Z" fill="white"/>
<path d="M715.817 1187.77C715.817 1190.08 713.944 1191.95 711.634 1191.95C709.324 1191.95 707.452 1190.08 707.452 1187.77C707.452 1185.46 709.324 1183.58 711.634 1183.58C713.944 1183.58 715.817 1185.46 715.817 1187.77Z" fill="white"/>
<path d="M669.581 1227.08C673.529 1227.08 676.729 1223.88 676.729 1219.94C676.729 1215.99 673.529 1212.79 669.581 1212.79C665.634 1212.79 662.433 1215.99 662.433 1219.94C662.433 1223.88 665.634 1227.08 669.581 1227.08Z" fill="white"/>
<path d="M655.07 1210.23C656.884 1210.23 658.354 1208.76 658.354 1206.95C658.354 1205.13 656.884 1203.66 655.07 1203.66C653.257 1203.66 651.786 1205.13 651.786 1206.95C651.786 1208.76 653.257 1210.23 655.07 1210.23Z" fill="white"/>
<path d="M625.626 1190.43C625.626 1193.37 623.243 1195.75 620.303 1195.75C617.363 1195.75 614.98 1193.37 614.98 1190.43C614.98 1187.49 617.363 1185.11 620.303 1185.11C623.243 1185.11 625.626 1187.49 625.626 1190.43Z" fill="white"/>
<path d="M644.181 1206.25C644.181 1208.85 642.07 1210.96 639.466 1210.96C636.862 1210.96 634.751 1208.85 634.751 1206.25C634.751 1203.64 636.862 1201.53 639.466 1201.53C642.07 1201.53 644.181 1203.64 644.181 1206.25Z" fill="white"/>
<path d="M639.573 1161.71C639.573 1165.56 636.451 1168.68 632.599 1168.68C628.748 1168.68 625.625 1165.56 625.625 1161.71C625.625 1157.85 628.747 1154.73 632.599 1154.73C636.451 1154.73 639.573 1157.85 639.573 1161.71Z" fill="white"/>
<path d="M597.466 1164.12C600.058 1164.12 602.158 1162.02 602.158 1159.42C602.158 1156.83 600.058 1154.73 597.466 1154.73C594.875 1154.73 592.774 1156.83 592.774 1159.42C592.774 1162.02 594.875 1164.12 597.466 1164.12Z" fill="white"/>
<path d="M604.615 1180.25C604.615 1180.93 604.065 1181.48 603.387 1181.48C602.709 1181.48 602.159 1180.93 602.159 1180.25C602.159 1179.57 602.709 1179.02 603.387 1179.02C604.065 1179.02 604.615 1179.57 604.615 1180.25Z" fill="white"/>
<path d="M664.866 1151.04C667.219 1151.04 669.125 1149.13 669.125 1146.78C669.125 1144.43 667.219 1142.52 664.866 1142.52C662.514 1142.52 660.607 1144.43 660.607 1146.78C660.607 1149.13 662.514 1151.04 664.866 1151.04Z" fill="white"/>
<path d="M721.901 1167.16C721.901 1168.84 720.539 1170.2 718.859 1170.2C717.179 1170.2 715.817 1168.84 715.817 1167.16C715.817 1165.48 717.179 1164.12 718.859 1164.12C720.539 1164.12 721.901 1165.48 721.901 1167.16Z" fill="white"/>
<path d="M721.559 1149.13C724.73 1149.13 727.3 1146.56 727.3 1143.39C727.3 1140.22 724.73 1137.65 721.559 1137.65C718.389 1137.65 715.818 1140.22 715.818 1143.39C715.818 1146.56 718.389 1149.13 721.559 1149.13Z" fill="white"/>
<path d="M607.206 1114.55C608.637 1114.55 609.797 1113.39 609.797 1111.96C609.797 1110.52 608.637 1109.36 607.206 1109.36C605.776 1109.36 604.615 1110.52 604.615 1111.96C604.615 1113.39 605.776 1114.55 607.206 1114.55Z" fill="white"/>
<path d="M583.344 1131.87C583.344 1133.72 581.846 1135.22 579.998 1135.22C578.15 1135.22 576.652 1133.72 576.652 1131.87C576.652 1130.03 578.15 1128.53 579.998 1128.53C581.846 1128.53 583.344 1130.03 583.344 1131.87Z" fill="white"/>
<path d="M873.03 1112.96C873.03 1114.95 871.418 1116.56 869.43 1116.56C867.442 1116.56 865.831 1114.95 865.831 1112.96C865.831 1110.98 867.443 1109.36 869.43 1109.36C871.419 1109.36 873.03 1110.98 873.03 1112.96Z" fill="white"/>
<path d="M880.533 1131.42C880.533 1133.01 879.239 1134.31 877.643 1134.31C876.047 1134.31 874.753 1133.01 874.753 1131.42C874.753 1129.82 876.047 1128.53 877.643 1128.53C879.239 1128.53 880.533 1129.82 880.533 1131.42Z" fill="white"/>
<path d="M908.417 1111.29C908.417 1115.55 904.967 1119 900.711 1119C896.455 1119 893.005 1115.55 893.005 1111.29C893.005 1107.03 896.455 1103.58 900.711 1103.58C904.967 1103.58 908.417 1107.03 908.417 1111.29Z" fill="white"/>
<path d="M894.45 1131.42C895.809 1131.42 896.909 1130.32 896.909 1128.96C896.909 1127.6 895.809 1126.5 894.45 1126.5C893.092 1126.5 891.991 1127.6 891.991 1128.96C891.991 1130.32 893.092 1131.42 894.45 1131.42Z" fill="white"/>
<path d="M864.919 1085.18C864.919 1085.99 864.261 1086.65 863.449 1086.65C862.637 1086.65 861.979 1085.99 861.979 1085.18C861.979 1084.37 862.637 1083.71 863.449 1083.71C864.261 1083.71 864.919 1084.37 864.919 1085.18Z" fill="white"/>
<path d="M856.097 1101.66C856.097 1102.95 855.053 1103.99 853.765 1103.99C852.477 1103.99 851.433 1102.95 851.433 1101.66C851.433 1100.37 852.477 1099.33 853.765 1099.33C855.053 1099.33 856.097 1100.37 856.097 1101.66Z" fill="white"/>
<path d="M859.342 1121.78C859.342 1123.32 858.094 1124.57 856.554 1124.57C855.014 1124.57 853.766 1123.32 853.766 1121.78C853.766 1120.24 855.014 1119 856.554 1119C858.093 1119 859.342 1120.25 859.342 1121.78Z" fill="white"/>
<path d="M893.867 1088.91C893.867 1090.15 892.857 1091.16 891.611 1091.16C890.365 1091.16 889.355 1090.15 889.355 1088.91C889.355 1087.66 890.365 1086.65 891.611 1086.65C892.857 1086.65 893.867 1087.66 893.867 1088.91Z" fill="white"/>
<path d="M885.047 1100.37C885.047 1101.61 884.036 1102.62 882.79 1102.62C881.544 1102.62 880.534 1101.61 880.534 1100.37C880.534 1099.12 881.544 1098.11 882.79 1098.11C884.035 1098.11 885.047 1099.12 885.047 1100.37Z" fill="white"/>
<path d="M853.765 1078.39C853.765 1080.15 852.335 1081.58 850.571 1081.58C848.807 1081.58 847.377 1080.15 847.377 1078.39C847.377 1076.62 848.807 1075.19 850.571 1075.19C852.335 1075.19 853.765 1076.62 853.765 1078.39Z" fill="white"/>
<path d="M724.106 1028.23C724.106 1030.52 722.25 1032.38 719.961 1032.38C717.672 1032.38 715.817 1030.52 715.817 1028.23C715.817 1025.95 717.672 1024.09 719.961 1024.09C722.25 1024.09 724.106 1025.95 724.106 1028.23Z" fill="white"/>
<path d="M742.535 1069.31C742.535 1072.56 739.902 1075.19 736.654 1075.19C733.406 1075.19 730.773 1072.56 730.773 1069.31C730.773 1066.06 733.406 1063.43 736.654 1063.43C739.902 1063.43 742.535 1066.06 742.535 1069.31Z" fill="white"/>
<path d="M721.901 1105.66C721.901 1107.34 720.539 1108.71 718.859 1108.71C717.179 1108.71 715.817 1107.34 715.817 1105.66C715.817 1103.98 717.179 1102.62 718.859 1102.62C720.539 1102.62 721.901 1103.98 721.901 1105.66Z" fill="white"/>
<path d="M967.514 1115.57C967.514 1119 964.734 1121.78 961.304 1121.78C957.874 1121.78 955.094 1119 955.094 1115.57C955.094 1112.14 957.875 1109.36 961.304 1109.36C964.734 1109.36 967.514 1112.14 967.514 1115.57Z" fill="white"/>
<path d="M992.343 1147.57C992.343 1150.37 990.08 1152.63 987.288 1152.63C984.496 1152.63 982.233 1150.37 982.233 1147.57C982.233 1144.78 984.496 1142.52 987.288 1142.52C990.08 1142.52 992.343 1144.78 992.343 1147.57Z" fill="white"/>
<path d="M943.813 1094.64C943.813 1097.81 941.246 1100.37 938.08 1100.37C934.914 1100.37 932.347 1097.81 932.347 1094.64C932.347 1091.47 934.914 1088.91 938.08 1088.91C941.246 1088.91 943.813 1091.47 943.813 1094.64Z" fill="white"/>
<path d="M685.297 1081.58C687.734 1081.58 689.708 1079.61 689.708 1077.17C689.708 1074.73 687.734 1072.76 685.297 1072.76C682.861 1072.76 680.886 1074.73 680.886 1077.17C680.886 1079.61 682.861 1081.58 685.297 1081.58Z" fill="white"/>
<path d="M686.359 1112.25C686.359 1114.21 684.771 1115.8 682.811 1115.8C680.852 1115.8 679.263 1114.21 679.263 1112.25C679.263 1110.29 680.851 1108.7 682.811 1108.7C684.771 1108.7 686.359 1110.29 686.359 1112.25Z" fill="white"/>
<path d="M682.786 1032.38C686.644 1032.38 689.77 1029.25 689.77 1025.4C689.77 1021.54 686.644 1018.41 682.786 1018.41C678.929 1018.41 675.802 1021.54 675.802 1025.4C675.802 1029.25 678.929 1032.38 682.786 1032.38Z" fill="white"/>
<path d="M1442.09 670.698V666.202L1468.04 652.155V659.022L1450.71 668.449L1468.04 677.876V684.743L1442.09 670.698Z" fill="#BBDBF3"/>
<path d="M1947.81 1043.85V1036.99L1965.14 1027.56L1947.81 1018.13V1011.27L1973.76 1025.31V1029.81L1947.81 1043.85Z" fill="#BBDBF3"/>
<path d="M1580.89 663.148H1477.67V673.752H1580.89V663.148Z" fill="#BBDBF3"/>
<path d="M1545.31 704.127H1442.09V714.731H1545.31V704.127Z" fill="#BBDBF3"/>
<path d="M1567.3 732.674H1464.08V743.278H1567.3V732.674Z" fill="#BBDBF3"/>
<path d="M1567.3 811.244H1464.08V821.848H1567.3V811.244Z" fill="#BBDBF3"/>
<path d="M1567.3 835.548H1464.08V846.152H1567.3V835.548Z" fill="#BBDBF3"/>
<path d="M1810.83 759.862H1499.55V770.466H1810.83V759.862Z" fill="#BBDBF3"/>
<path d="M1915.39 861.371H1499.55V871.975H1915.39V861.371Z" fill="#BBDBF3"/>
<path d="M1915.39 942.67H1499.55V953.274H1915.39V942.67Z" fill="#BBDBF3"/>
<path d="M1937.06 1022.26H1538.66V1032.86H1937.06V1022.26Z" fill="#BBDBF3"/>
<path d="M1588.61 970.294H1499.55V980.898H1588.61V970.294Z" fill="#BBDBF3"/>
<path d="M1588.61 996.57H1499.55V1007.17H1588.61V996.57Z" fill="#BBDBF3"/>
<path d="M1915.39 887.323H1499.55V897.927H1915.39V887.323Z" fill="#BBDBF3"/>
<path d="M1724.54 913.275H1499.55V923.879H1724.54V913.275Z" fill="#BBDBF3"/>
<path d="M1595 784.301H1499.55V794.905H1595V784.301Z" fill="#BBDBF3"/>
<path d="M1389.86 1458.32H962.912C953.145 1458.32 945.187 1450.4 945.187 1440.63V1288.2C945.187 1278.43 953.144 1270.51 962.912 1270.51H1389.86C1380.09 1270.51 1372.17 1278.43 1372.17 1288.2V1440.63C1372.17 1450.4 1380.09 1458.32 1389.86 1458.32Z" fill="#F74242"/>
<path d="M1393.55 1291.89V1436.94H1817.74V1458.32H1389.86C1380.09 1458.32 1372.17 1450.4 1372.17 1440.63V1288.2C1372.17 1278.43 1380.09 1270.51 1389.86 1270.51H1817.74V1291.9L1393.55 1291.89Z" fill="#DE2828"/>
<path d="M1408.64 1291.89H1393.55V1436.94H1408.64V1291.89Z" fill="#E5F0F8"/>
<path d="M1808.43 1436.94H1408.64V1291.89H1808.43C1808.43 1291.89 1793.53 1347.67 1808.43 1436.94Z" fill="white"/>
<path d="M1048.17 1270.51H1016.13V1458.31H1048.17V1270.51Z" fill="#F9ECB8"/>
<path d="M1274.7 1270.51H1242.66V1458.31H1274.7V1270.51Z" fill="#F9ECB8"/>
<g filter="url(#filter1_d_76_124152)">
<path d="M1380.56 1270.5H953.616C943.849 1270.5 935.891 1262.58 935.891 1252.81V1100.37C935.891 1090.61 943.848 1082.69 953.616 1082.69H1380.56C1370.79 1082.69 1362.87 1090.61 1362.87 1100.37V1252.81C1362.87 1262.58 1370.79 1270.5 1380.56 1270.5Z" fill="#2EC6FC"/>
</g>
<path d="M1384.26 1104.07V1249.11H1808.45V1270.5H1380.56C1370.79 1270.5 1362.87 1262.58 1362.87 1252.81V1100.37C1362.87 1090.61 1370.79 1082.69 1380.56 1082.69H1808.45V1104.07L1384.26 1104.07Z" fill="#088CFC"/>
<path d="M1399.34 1104.07H1384.26V1249.11H1399.34V1104.07Z" fill="#E5F0F8"/>
<path d="M1799.13 1249.11H1399.34V1104.07H1799.13C1799.13 1104.07 1784.23 1159.85 1799.13 1249.11Z" fill="white"/>
<path d="M1158.22 1215.31L1225.54 1176.59L1158.22 1137.87L1090.91 1176.59L1158.22 1215.31Z" fill="white"/>
<path d="M1052.19 1198.86L1090.91 1176.59L1052.19 1154.32L1013.47 1176.59L1052.19 1198.86Z" fill="white"/>
<path d="M1264.26 1198.86L1225.54 1176.59L1264.26 1154.32L1302.97 1176.59L1264.26 1198.86Z" fill="white"/>
<path d="M302.449 954.766H554.612V941.4H302.449V954.766Z" fill="#586773"/>
<path d="M277.176 1130.18H529.339V1116.81H277.176V1130.18Z" fill="#586773"/>
<path d="M257.735 1305.59H502.188V1292.23H257.735V1305.59Z" fill="#586773"/>
<path d="M475.806 1464.5H490.062L573.369 818.461H559.112L475.806 1464.5Z" fill="#586773"/>
<path d="M232.354 1464.5H246.611L329.917 818.461H315.66L232.354 1464.5Z" fill="#586773"/>
<path d="M413.295 1464.5H399.038L315.732 818.461H329.988L413.295 1464.5Z" fill="#586773"/>
<path d="M656.748 1464.5H642.492L559.185 818.461H573.441L656.748 1464.5Z" fill="#586773"/>
<path d="M317.959 831.827H570.122V818.461H317.959V831.827Z" fill="#586773"/>
<path d="M1896.47 1496.17H165.136C155.536 1496.17 147.753 1488.39 147.753 1478.79V1475.78C147.753 1466.18 155.536 1458.4 165.136 1458.4H1896.47C1906.07 1458.4 1913.85 1466.18 1913.85 1475.78V1478.79C1913.85 1488.39 1906.07 1496.17 1896.47 1496.17Z" fill="#0775EF"/>
<path d="M339.278 707.448L317.828 885.005C317.154 889.493 317.176 894.159 318.091 898.869C322.4 921.039 343.866 935.518 366.037 931.209C388.207 926.9 396.692 909.781 400.674 884.324C408.318 835.457 435.015 688.838 435.015 688.838L339.278 707.448Z" fill="#088CFC"/>
<path d="M478.357 698.511L399.566 703.797L399.958 791.089L409.31 804.919L417.979 889.072L497.734 882.696L478.357 698.511Z" fill="#088CFC"/>
<path d="M302.891 1065.23L377.004 1065.18L399.344 892.709C401.676 870.233 385.383 850.107 362.937 847.741C340.461 845.409 320.367 861.7 318.001 884.146C317.788 886.097 317.763 888.003 317.834 889.934L304.933 1041.31L302.891 1065.23Z" fill="#088CFC"/>
<path d="M417.695 885.969L436.727 1065.23H509.537L497.863 884.987C497.958 883.087 497.42 880.966 497.261 879.003C495.266 856.491 477.377 839.679 454.866 841.642C432.386 843.637 415.732 863.457 417.695 885.969Z" fill="#088CFC"/>
<path d="M447.233 1093.24L445.281 1065.23H499.832L501.962 1093.24H447.233Z" fill="#FDAE97"/>
<path d="M500.797 1077.92L445.281 1065.23H499.832L500.797 1077.92Z" fill="#EA9D85"/>
<path d="M366.261 1093.24L368.353 1065.18L312.478 1065.23L311.531 1093.24H366.261Z" fill="#FDAE97"/>
<path d="M367.186 1080.83L312.478 1065.23L368.353 1065.18L367.186 1080.83Z" fill="#EA9D85"/>
<path d="M528.845 1116.81H448.292L448.154 1113.53L447.165 1091.82H501.979C508.765 1091.82 515.043 1095.8 519.844 1099.96C523.814 1103.51 526.768 1108.17 528.153 1113.53C528.476 1114.59 528.707 1115.7 528.845 1116.81Z" fill="#322A28"/>
<path d="M528.845 1116.81H448.292L448.154 1113.53H528.153C528.476 1114.59 528.707 1115.7 528.845 1116.81Z" fill="#FFF1F0"/>
<path d="M285.066 1116.81H365.619L365.757 1113.53L366.746 1091.82H311.932C305.146 1091.82 298.868 1095.8 294.067 1099.96C290.097 1103.51 287.143 1108.17 285.758 1113.53C285.436 1114.59 285.205 1115.7 285.066 1116.81Z" fill="#322A28"/>
<path d="M285.066 1116.81H365.619L365.757 1113.53H285.758C285.436 1114.59 285.205 1115.7 285.066 1116.81Z" fill="#FFF1F0"/>
<path d="M578.288 467.796C585.515 481.75 580.011 499.079 566.057 506.305L473.295 554.347C459.341 561.574 442.012 556.07 434.786 542.116C427.559 528.163 433.063 510.833 447.017 503.607L539.779 455.565C553.732 448.339 571.061 453.843 578.288 467.796Z" fill="#FDAE97"/>
<path d="M447.016 503.607C433.063 510.834 426.414 528.506 433.641 542.46C440.868 556.414 461.21 563.523 475.163 556.297L547.279 521.419L518.623 461.17L447.016 503.607Z" fill="#F74242"/>
<path d="M465.327 486.706L479.641 553.262L483.825 709.238H332.802L336.327 541.995L357.855 486.842L404.761 485.248L439.039 488.848L465.327 486.706Z" fill="#F74242"/>
<path d="M439.039 461.127V488.847C439.039 488.847 437.383 494.834 423.289 494.892C409.225 494.921 394.347 485.593 394.347 485.593L398.706 424.978L439.039 461.127Z" fill="#FDAE97"/>
<path d="M439.051 485.045L410.26 455.156L439.051 454.779V485.045Z" fill="#EA9D85"/>
<path d="M531.747 477.106C529.236 490.671 538.281 503.824 551.846 506.334C565.411 508.845 578.563 499.801 581.074 486.236L588.973 367.701L559.826 363.541L531.747 477.106Z" fill="#FDAE97"/>
<path d="M450.837 405.364C450.837 405.364 450.837 422.363 450.837 434.422V444.389C450.837 452.264 448.629 463.945 439.766 466.648C430.932 469.35 418.757 465.66 410.272 456.449C401.787 447.209 382.957 405.597 409.138 390.226C435.349 374.853 450.227 401.296 450.837 405.364Z" fill="#FDAE97"/>
<path d="M411.856 388.782C411.856 388.782 443.536 374.167 450.842 383.766C458.148 393.365 445.977 396.716 445.977 396.716C445.977 396.716 461.087 394.932 460.499 405.119C459.911 415.306 422.103 401.397 422.103 401.397C422.103 401.397 434.64 407.078 427.392 411.584C420.144 416.09 411.856 410.213 411.856 410.213C411.856 410.213 404.668 414.323 405.844 433.201C407.02 452.079 395.752 456.248 395.752 456.248C395.752 456.248 397.102 427.647 391.58 420.007C386.059 412.367 394.165 384.003 411.856 388.782Z" fill="#322A28"/>
<path d="M407.62 437.578C410.694 442.392 411.516 445.781 407.736 448.195C403.956 450.609 397.671 449.846 394.597 445.032C391.523 440.218 392.095 434.358 395.875 431.944C399.654 429.53 404.546 432.764 407.62 437.578Z" fill="#FDAE97"/>
<path d="M521.816 464.867L555.487 511.779L545.223 517.094L520.665 465.463L521.816 464.867Z" fill="#EA9D85"/>
<path d="M427.296 427.478C427.296 429.305 428.254 430.785 429.436 430.785C430.618 430.785 431.576 429.304 431.576 427.478C431.576 425.651 430.618 424.171 429.436 424.171C428.254 424.171 427.296 425.651 427.296 427.478Z" fill="#2C3447"/>
<path d="M449.391 427.478C449.391 429.305 448.433 430.785 447.251 430.785C446.069 430.785 445.111 429.304 445.111 427.478C445.111 425.651 446.069 424.171 447.251 424.171C448.433 424.171 449.391 425.651 449.391 427.478Z" fill="#2C3447"/>
<path d="M430.697 439.539C430.135 441.217 426.974 441.672 423.638 440.554C420.301 439.436 418.052 437.17 418.614 435.492C419.176 433.814 422.337 433.359 425.673 434.477C429.01 435.595 431.259 437.861 430.697 439.539Z" fill="#EA9D85"/>
<path d="M450.837 434.422V440.902C448.106 441.221 445.868 440.466 445.49 439.042C445.084 437.357 447.467 435.294 450.837 434.422Z" fill="#EA9D85"/>
<path d="M428.116 450.757L437.475 452.942C437.475 452.942 435.783 456.809 431.88 455.773C427.977 454.736 428.116 450.757 428.116 450.757Z" fill="white"/>
<path d="M459.947 489.335L518.623 461.17L499.053 498.739L456.065 511.089L459.947 489.335Z" fill="#F74242"/>
<path d="M286.323 470.315C291.675 483.03 284.125 505.353 271.41 510.704C258.695 516.056 242.376 507.573 237.024 494.858L205.511 383.209L233.095 372.916L286.323 470.315Z" fill="#FDAE97"/>
<path d="M237.068 471.154C243.001 456.603 259.76 449.552 274.311 455.485L371.044 494.926C385.595 500.859 392.646 517.618 386.713 532.169C380.78 546.72 364.021 553.771 349.47 547.838L252.737 508.398C238.186 502.465 231.135 485.705 237.068 471.154Z" fill="#FDAE97"/>
<path d="M349.47 547.838C364.021 553.771 381.784 547.368 387.717 532.817C393.65 518.266 385.866 498.172 371.316 492.239L297.993 459.975L270.725 520.865L349.47 547.838Z" fill="#F74242"/>
<path d="M271.468 516.034L285.333 459.979L296.036 464.343L272.668 516.523L271.468 516.034Z" fill="#EA9D85"/>
<path d="M233.095 372.916L235.815 358.413C235.815 358.413 234.32 343.979 233.821 339.168C233.54 336.455 233.419 329.389 232.697 328.318C232.126 327.47 229.698 326.909 229.124 327.755C228.378 328.854 227.712 336.102 227.392 338.938C227.088 341.634 226.175 349.722 226.175 349.722C226.175 349.722 216.295 331.689 213.359 325.466C211.706 321.963 207.347 311.531 204.645 312.509C202.587 313.254 205.767 324.423 206.817 328.256C207.782 331.779 210.569 342.377 210.569 342.377C210.569 342.377 204.203 328.487 202.08 323.857C200.536 320.488 197.294 309.872 194.24 310.888C191.217 311.894 195.225 322.115 196.153 325.675C197.462 330.699 201.39 345.773 201.39 345.773C201.39 345.773 194.375 331.392 192.036 326.598C190.742 323.945 187.993 315.548 185.203 316.68C182.361 317.833 186.31 325.93 187.243 328.778C188.842 333.656 193.64 348.291 193.64 348.291C193.64 348.291 188.265 338.035 186.474 334.616C185.708 333.155 183.282 328.868 181.759 329.65C179.686 330.715 182.498 336.739 183.202 338.859L189.019 356.382C189.49 357.8 190.136 359.153 190.943 360.409L205.604 383.241L233.095 372.916Z" fill="#FDAE97"/>
<path d="M559.826 363.54L554.069 349.953C554.069 349.953 552.445 335.533 551.903 330.726C551.598 328.016 550.206 321.087 550.682 319.886C551.059 318.936 553.311 317.869 554.053 318.573C555.017 319.487 557.216 326.425 558.135 329.127C559.008 331.696 561.628 339.402 561.628 339.402C561.628 339.402 567.426 319.674 568.964 312.967C569.83 309.192 571.859 298.069 574.707 298.447C576.877 298.735 576.157 310.326 575.951 314.295C575.762 317.943 575.304 328.892 575.304 328.892C575.304 328.892 578.555 313.962 579.638 308.986C580.427 305.365 581.325 294.301 584.525 294.641C587.694 294.978 585.962 305.819 585.817 309.495C585.612 314.683 584.997 330.248 584.997 330.248C584.997 330.248 588.776 314.7 590.036 309.517C590.733 306.649 591.624 297.859 594.592 298.368C597.615 298.886 595.488 307.641 595.185 310.622C594.665 315.729 593.106 331.052 593.106 331.052C593.106 331.052 596.165 319.884 597.184 316.161C597.62 314.57 599.074 309.863 600.729 310.302C602.982 310.899 601.522 317.385 601.288 319.607L599.35 337.969C599.193 339.454 598.851 340.914 598.331 342.315L588.888 367.752L559.826 363.54Z" fill="#FDAE97"/>
<path d="M562.89 335.774L198.911 342.41C188.605 342.598 180.098 334.396 179.911 324.09L176.359 129.252C176.171 118.946 184.373 110.439 194.679 110.251L558.658 103.615C568.964 103.427 577.471 111.629 577.658 121.935L581.21 316.773C581.398 327.079 573.196 335.586 562.89 335.774Z" fill="#F2BB16"/>
<path d="M583.645 335.397L219.666 342.033C209.36 342.221 200.853 334.019 200.665 323.713L197.113 128.875C196.925 118.569 205.127 110.062 215.433 109.874L579.412 103.238C589.718 103.05 598.225 111.252 598.412 121.558L601.964 316.396C602.153 326.702 593.951 335.209 583.645 335.397Z" fill="#F9E181"/>
<path d="M560.515 336.13C560.515 336.13 557.336 316.201 553.838 316.049C550.34 315.897 552.512 336.13 552.512 336.13H560.515Z" fill="#FDAE97"/>
<path d="M226.988 342.52C226.988 342.52 227.979 328.292 231.173 327.988C234.367 327.684 234.349 344.264 234.349 344.264L226.988 342.52Z" fill="#FDAE97"/>
<path d="M1090.44 488.789C1089.29 490.828 1098.55 501.579 1107.42 506.923C1114.93 511.46 1133.37 520.056 1138.82 522.551L1153.88 499.042C1151.18 496.78 1148.28 494.189 1146.08 491.657C1140.6 485.468 1123.79 470.342 1121.61 472.801C1119.44 475.22 1128.89 487.923 1127.14 488.202C1125.38 488.481 1116.29 480.778 1112.69 477.195C1109.05 473.61 1102.55 464.676 1099.62 465.128C1096.64 465.578 1096.2 469.949 1096.2 469.949C1096.2 469.949 1094.11 466.243 1092.03 467.974C1089.96 469.706 1091.78 476.286 1091.78 476.286C1091.78 476.286 1090.86 474.111 1089.05 476.58C1087.24 479.089 1093.3 487.93 1093.3 487.93C1093.3 487.93 1091.55 486.708 1090.44 488.789Z" fill="#FDAE97"/>
<path d="M1326.81 349.356C1346.35 351.055 1363.31 367.658 1363.55 391.373C1363.79 415.089 1368.09 427.29 1382.43 424.535C1382.43 424.535 1342.27 447.823 1289.36 427.275C1289.36 427.275 1295.99 419.41 1296.92 401.6C1297.85 383.788 1326.81 349.356 1326.81 349.356Z" fill="#322A28"/>
<path d="M1224.06 591.65C1236.51 598.35 1252.18 593.647 1258.88 581.197L1309.24 487.621C1315.94 475.172 1311.23 459.504 1298.79 452.804C1286.34 446.104 1270.67 450.808 1263.97 463.257L1213.61 556.833C1206.91 569.282 1211.61 584.95 1224.06 591.65Z" fill="#F74242"/>
<path d="M1338.52 622.785C1355.35 644.82 1361.69 690.503 1350.96 739.715C1340.23 788.927 1336.6 821.278 1336.6 821.278C1333.81 844.058 1313.07 860.258 1290.29 857.461C1267.51 854.664 1251.31 833.929 1254.11 811.149L1271.22 622.785H1338.52Z" fill="#0775EF"/>
<path d="M1342.23 442.144L1387.22 462.518C1387.22 462.518 1377.21 578.32 1376.18 590.987C1375.15 603.654 1379.02 622.786 1379.02 622.786H1271.22C1271.22 622.786 1272.51 560.74 1265.27 543.419C1260.37 531.685 1257 524.548 1259.85 511.105C1262.69 497.662 1283.5 473.897 1280.14 450.63L1303.6 443.114L1342.23 442.144Z" fill="#F74242"/>
<path d="M1387.94 619.199C1402.06 618.52 1413.06 606.41 1412.38 592.289L1407.28 486.144C1406.6 472.023 1394.49 461.024 1380.37 461.704C1366.25 462.383 1355.25 474.492 1355.93 488.614L1361.03 594.76C1361.71 608.88 1373.82 619.878 1387.94 619.199Z" fill="#F74242"/>
<path d="M1298.18 375.035C1298.18 375.035 1292.06 359.977 1306.77 355.418L1298.18 375.035Z" fill="#332B27"/>
<path d="M1303.61 390.774V443.103C1303.61 443.103 1304.66 454.583 1318.29 455.597C1330.06 456.49 1337.56 448.742 1340.73 444.604L1342.39 442.17L1342.43 442.13L1336.87 390.775L1303.61 390.774Z" fill="#FDAE97"/>
<path d="M1303.62 437.146L1326.81 411.925L1303.6 420.643L1303.62 437.146Z" fill="#E89780"/>
<path d="M1326.62 417.512C1315.78 423.905 1302.99 423.896 1295.27 418.706C1287.55 413.545 1288.82 401.654 1291.12 394.104C1291.13 394.075 1291.13 394.075 1291.13 394.046C1291.61 392.485 1292.29 390.29 1293.05 387.802C1296 378.049 1300.36 363.605 1300.36 363.605C1302.27 355.972 1324.13 338.801 1344.83 361.193C1365.52 383.613 1337.47 411.119 1326.62 417.512Z" fill="#FDAE97"/>
<path d="M1301.06 360.518C1301.06 360.518 1301.34 369.665 1314.15 375.776C1326.96 381.888 1339.13 391.233 1337.59 404.742C1336.06 418.25 1340.69 425.871 1340.69 425.871C1340.69 425.871 1342.6 409.037 1351.09 394.781C1354.38 389.251 1357.27 377.585 1351.8 367.527C1343.17 351.657 1320.89 339.599 1301.06 360.518Z" fill="#322A28"/>
<path d="M1335.4 401.84C1332.65 405.912 1331.86 408.809 1335.06 410.973C1338.26 413.137 1343.68 412.624 1346.44 408.552C1349.19 404.48 1348.84 399.425 1345.64 397.261C1342.44 395.097 1338.16 397.768 1335.4 401.84Z" fill="#FDAE97"/>
<path d="M1315.27 389.779C1314.76 391.609 1313.39 392.826 1312.21 392.497C1311.02 392.168 1310.47 390.417 1310.98 388.587C1311.49 386.757 1312.86 385.54 1314.05 385.869C1315.23 386.199 1315.78 387.949 1315.27 389.779Z" fill="#2C3447"/>
<path d="M1300.39 384.067C1299.92 385.757 1298.65 386.881 1297.56 386.577C1296.46 386.273 1295.96 384.656 1296.43 382.966C1296.9 381.276 1298.16 380.151 1299.26 380.455C1300.35 380.759 1300.86 382.377 1300.39 384.067Z" fill="#2C3447"/>
<path d="M1239.2 1035.61H1312.21L1337.28 820.983L1337.6 816.07C1337.6 792.736 1318.38 773.928 1294.88 774.634C1273.7 775.244 1255.95 792.479 1254.7 813.663L1239.2 1035.61Z" fill="#0775EF"/>
<path d="M1372.54 1035.61H1442.22L1420.11 813.92L1420.04 813.15C1418.56 791.614 1400.59 774.603 1378.67 774.603C1355.75 774.603 1337.2 793.155 1337.2 816.071C1337.2 817.355 1337.27 818.607 1337.39 819.826L1372.54 1035.61Z" fill="#088CFF"/>
<path d="M1131.76 533.608L1217.03 587.563L1222.08 591.752C1232.36 598.877 1247.43 595.171 1255.52 583.492C1263.62 571.813 1261.79 556.427 1251.5 549.302L1155.99 495.77L1153.88 499.042L1138.82 522.551L1131.76 533.608Z" fill="#F74242"/>
<path d="M1305.03 622.805L1306 628.849L1337.28 819.949C1339.67 842.787 1360.12 859.337 1382.95 856.944C1405.75 854.551 1422.34 834.106 1419.95 811.268C1419.95 811.268 1416.18 778.938 1415.57 728.557C1415.08 689.534 1406.24 658.056 1392.33 637.692C1388.27 631.77 1383.81 626.78 1379.02 622.805H1305.03Z" fill="#088CFF"/>
<path d="M1324.12 397.775C1324.18 399.754 1321.08 401.445 1317.2 401.553C1313.32 401.66 1310.12 400.143 1310.07 398.164C1310.02 396.185 1313.12 394.494 1317 394.386C1320.88 394.279 1324.07 395.797 1324.12 397.775Z" fill="#E89780"/>
<path d="M1295.23 393.108C1294.61 394.161 1293.03 394.458 1291.13 394.046C1291.61 392.485 1292.29 390.29 1293.05 387.802C1295.09 389.661 1296.05 391.794 1295.23 393.108Z" fill="#E89780"/>
<path d="M1456.24 1082.69H1402.46L1395.48 1072.06L1395.64 1082.69H1383.79L1384.85 1051.98L1382.25 1035.59H1426.06L1426.23 1051.98L1456.24 1082.69Z" fill="#FDAE97"/>
<path d="M1301.95 442.892L1304.66 497.907L1340.73 444.605C1337.56 448.742 1330.06 456.49 1318.29 455.598C1304.66 454.583 1301.95 442.892 1301.95 442.892Z" fill="#F9ECB8"/>
<path d="M1342.1 439.16L1315.21 455.158L1320.89 465.11L1345.89 443.8L1342.1 439.16Z" fill="white"/>
<path d="M1303.62 441.455L1315.21 455.158L1308.21 463.606L1300.91 443.976L1303.62 441.455Z" fill="white"/>
<path d="M1095.86 396.061L1113.21 385.425L938.637 100.669L918.692 87.6055L921.287 111.306L1095.86 396.061Z" fill="#93ACBF"/>
<path d="M1298.43 770.273L1354.79 735.723C1362.49 730.997 1364.91 720.917 1360.19 713.209L1180.06 419.385L1095.79 471.048L1275.91 764.872C1280.64 772.58 1290.72 774.998 1298.43 770.273Z" fill="#6ADB6A"/>
<path d="M1069.15 427.592L1153.42 375.929L1141.62 356.685C1140.68 355.145 1138.67 354.662 1137.13 355.606L1058.43 403.85C1056.89 404.794 1056.41 406.808 1057.35 408.348L1069.15 427.592Z" fill="#6ADB6A"/>
<path d="M1092.74 443.821C1084.42 431.49 1069.15 427.592 1069.15 427.592L1111.28 401.761L1153.42 375.929C1153.42 375.929 1149.97 391.308 1157.18 404.315C1164.4 417.321 1180.06 419.386 1180.06 419.386L1137.92 445.218L1095.79 471.05C1095.79 471.048 1101.05 456.152 1092.74 443.821Z" fill="#40A87B"/>
<path d="M1312.53 730.039C1315.71 728.089 1316.72 723.891 1314.77 720.71L1161.81 471.195C1159.86 468.014 1155.66 467.007 1152.48 468.957C1149.3 470.907 1148.29 475.105 1150.24 478.286L1303.2 727.801C1305.15 730.982 1309.35 731.989 1312.53 730.039Z" fill="#40A87B"/>
<path d="M1289.4 744.221C1292.58 742.271 1293.59 738.073 1291.64 734.892L1138.67 485.377C1136.72 482.196 1132.53 481.189 1129.34 483.139C1126.16 485.089 1125.16 489.287 1127.11 492.468L1280.07 741.983C1282.02 745.164 1286.22 746.171 1289.4 744.221Z" fill="#40A87B"/>
<path d="M1335.67 715.858C1332.49 717.808 1328.29 716.801 1326.34 713.62L1173.37 464.105C1171.42 460.924 1172.43 456.726 1175.61 454.776C1178.79 452.826 1182.99 453.833 1184.94 457.014L1337.91 706.529C1339.86 709.71 1338.85 713.908 1335.67 715.858Z" fill="#40A87B"/>
<path d="M938.637 100.669L918.692 87.6055L941.889 119.88L938.637 100.669Z" fill="#586773"/>
<path d="M921.287 111.306L918.692 87.6055L936.932 122.919L921.287 111.306Z" fill="#586773"/>
<path d="M1262.76 1082.69L1275.62 1073.11L1274.53 1082.69H1286.49L1292.37 1051.98L1295.54 1035.59H1249.13L1247.35 1051.98L1210.11 1082.69H1262.76Z" fill="#FDAE97"/>
<path d="M1426.23 1051.98L1456.24 1082.69H1402.46L1395.48 1072.06L1395.64 1082.69H1383.79L1384.85 1051.98H1426.23Z" fill="#322A28"/>
<path d="M1262.76 1082.69L1275.62 1073.11L1274.53 1082.69H1286.49L1292.37 1051.98H1247.35L1210.11 1082.69H1262.76Z" fill="#322A28"/>
<path d="M1224.47 541.462C1221.83 542.879 1222.86 547.144 1222.86 547.144C1222.86 547.144 1219.64 544.336 1218.3 546.655C1217.02 548.805 1220.28 553.849 1220.71 554.504C1220.35 554.17 1219.09 553.224 1218.34 555.774C1217.49 558.579 1225.3 564.439 1226.04 564.983C1225.71 564.931 1224.02 564.675 1223.67 566.782C1223.31 569.136 1235.59 576.186 1245.72 578.296C1254.26 580.058 1274.43 581.965 1280.47 582.527L1287.26 555.531C1283.85 554.288 1280.09 552.709 1277.13 551.019C1269.88 546.981 1248.99 538.338 1247.76 541.38C1246.52 544.382 1259.65 553.229 1258.09 554.06C1256.54 554.891 1245.41 550.671 1240.82 548.514C1236.18 546.322 1227.07 540.048 1224.47 541.462Z" fill="#FDAE97"/>
<path d="M1289.3 547.366L1287.26 555.531L1280.47 582.527L1278.66 589.693L1382.05 620.138C1394.12 623.46 1407.09 614.972 1410.87 601.277C1414.62 587.544 1407.8 573.654 1395.69 570.335L1387.53 569.23L1387.49 569.234L1289.3 547.366Z" fill="#F74242"/>
<path d="M1759.75 320.483H1538.96C1532.71 320.483 1527.64 315.415 1527.64 309.164V190.975C1527.64 184.724 1532.71 179.656 1538.96 179.656H1759.75C1766 179.656 1771.07 184.724 1771.07 190.975V309.164C1771.07 315.416 1766 320.483 1759.75 320.483Z" fill="#0775EF"/>
<path d="M1772.34 320.483H1551.55C1545.3 320.483 1540.23 315.415 1540.23 309.164V190.975C1540.23 184.724 1545.3 179.656 1551.55 179.656H1772.34C1778.59 179.656 1783.66 184.724 1783.66 190.975V309.164C1783.66 315.416 1778.59 320.483 1772.34 320.483Z" fill="#088CFC"/>
<path d="M241.039 854.699H93.9194C88.7604 854.699 84.5784 850.517 84.5784 845.358V723.243C84.5784 718.084 88.7604 713.902 93.9194 713.902H241.04C246.199 713.902 250.381 718.084 250.381 723.243V845.358C250.38 850.517 246.198 854.699 241.039 854.699Z" fill="#0775EF"/>
<path d="M249.907 854.699H102.786C97.6273 854.699 93.4453 850.517 93.4453 845.358V723.243C93.4453 718.084 97.6273 713.902 102.786 713.902H249.907C255.066 713.902 259.248 718.084 259.248 723.243V845.358C259.248 850.517 255.065 854.699 249.907 854.699Z" fill="#088CFC"/>
<path d="M156.823 738.784H151.318C150.095 738.784 149.094 739.09 148.32 739.701C147.543 740.312 146.912 741.129 146.422 742.148C145.935 743.169 145.584 744.31 145.384 745.573C145.18 746.839 145.078 748.124 145.078 749.428V767.904C145.158 770.761 144.811 773.167 144.038 775.124C143.261 777.083 142.304 778.715 141.161 780.019C140.018 781.325 138.855 782.304 137.674 782.955C136.493 783.61 135.534 784.017 134.798 784.179V784.545C135.534 784.628 136.492 784.954 137.674 785.524C138.856 786.096 140.018 786.992 141.161 788.215C142.304 789.439 143.261 791.091 144.038 793.172C144.812 795.252 145.158 797.842 145.078 800.941V819.296C145.078 820.519 145.18 821.763 145.384 823.027C145.585 824.291 145.935 825.433 146.422 826.454C146.912 827.473 147.543 828.29 148.32 828.901C149.094 829.513 150.095 829.818 151.318 829.818H156.823V838.628H147.647C146.096 838.628 144.565 838.26 143.059 837.526C141.546 836.792 140.183 835.671 138.96 834.161C137.734 832.651 136.734 830.714 135.96 828.349C135.186 825.983 134.797 823.167 134.797 819.906V803.51C134.635 799.024 133.574 795.516 131.616 792.986C129.661 790.459 127.291 789.193 124.521 789.193V779.648C127.292 779.648 129.661 778.385 131.616 775.855C133.575 773.328 134.635 769.82 134.797 765.333V745.999C134.797 743.391 135.186 741.087 135.96 739.087C136.734 737.089 137.734 735.415 138.96 734.07C140.183 732.725 141.546 731.705 143.059 731.011C144.565 730.318 146.096 729.971 147.647 729.971H156.822V738.784H156.823Z" fill="white"/>
<path d="M197.935 829.82H203.441C204.664 829.82 205.664 829.514 206.441 828.903C207.215 828.292 207.846 827.475 208.336 826.456C208.827 825.435 209.17 824.294 209.377 823.029C209.578 821.765 209.683 820.48 209.683 819.175V800.697C209.6 797.844 209.947 795.436 210.721 793.479C211.495 791.52 212.453 789.89 213.597 788.584C214.74 787.28 215.903 786.301 217.084 785.648C218.265 784.995 219.227 784.589 219.96 784.424V784.058C219.227 783.977 218.266 783.65 217.084 783.079C215.902 782.509 214.74 781.611 213.597 780.386C212.454 779.163 211.495 777.512 210.721 775.431C209.947 773.351 209.6 770.762 209.683 767.662V749.307C209.683 748.084 209.578 746.841 209.377 745.575C209.17 744.312 208.826 743.171 208.336 742.15C207.846 741.131 207.215 740.314 206.441 739.703C205.664 739.092 204.664 738.786 203.441 738.786H197.935V729.976H207.113C208.661 729.976 210.189 730.342 211.702 731.078C213.208 731.812 214.578 732.933 215.801 734.443C217.024 735.953 218.021 737.89 218.798 740.255C219.572 742.621 219.96 745.436 219.96 748.698V765.094C219.96 769.581 220.979 773.089 223.02 775.618C225.058 778.147 227.463 779.411 230.24 779.411V788.954C227.463 788.954 225.059 790.22 223.02 792.749C220.979 795.278 219.96 798.785 219.96 803.271V822.604C219.96 825.214 219.572 827.518 218.798 829.518C218.021 831.516 217.024 833.188 215.801 834.535C214.578 835.88 213.209 836.9 211.702 837.594C210.189 838.285 208.661 838.634 207.113 838.634H197.935V829.82Z" fill="white"/>
<path d="M1890.79 749.797H1629.12C1620.96 749.797 1614.35 743.182 1614.35 735.022V564.019C1614.35 555.859 1620.96 549.245 1629.12 549.245H1890.79C1898.95 549.245 1905.56 555.86 1905.56 564.019V735.022C1905.56 743.182 1898.95 749.797 1890.79 749.797Z" fill="#F2BB16"/>
<path d="M1906.36 749.797H1644.7C1636.54 749.797 1629.92 743.182 1629.92 735.022V564.019C1629.92 555.859 1636.54 549.245 1644.7 549.245H1906.36C1914.52 549.245 1921.14 555.86 1921.14 564.019V735.022C1921.14 743.182 1914.52 749.797 1906.36 749.797Z" fill="#F9E181"/>
<path d="M1645.5 667.368V652.765L1729.8 607.141V629.445L1673.49 660.066L1729.8 690.687V712.991L1645.5 667.368Z" fill="white"/>
<path d="M1755.45 731.242L1741.62 725.16L1793.6 567.798L1807.43 574.288L1755.45 731.242Z" fill="white"/>
<path d="M1905.56 652.765V667.368L1821.26 712.992V690.688L1877.57 660.067L1821.26 629.446V607.142L1905.56 652.765Z" fill="white"/>
<path d="M175.371 3.64941H84.9374C79.5484 3.64941 75.1804 8.01743 75.1804 13.4064V65.4704C75.1804 70.8594 79.5484 75.2274 84.9374 75.2274H121.292V86.9724H97.3664C96.8984 86.9724 96.5184 87.3524 96.5184 87.8204V90.8254C96.5184 91.2934 96.8974 91.6734 97.3664 91.6734H162.942C163.41 91.6734 163.79 91.2934 163.79 90.8254V87.8204C163.79 87.3524 163.411 86.9724 162.942 86.9724H139.016V75.2274H175.371C180.76 75.2274 185.128 70.8594 185.128 65.4704V13.4064C185.128 8.01843 180.759 3.64941 175.371 3.64941Z" fill="#E5F0F8"/>
<path d="M577.731 63.2593V55.5153L622.436 31.3213V43.1493L592.574 59.3873L622.436 75.6253V87.4533L577.731 63.2593Z" fill="white"/>
<path d="M636.041 97.131L628.708 93.906L656.272 10.459L663.604 13.901L636.041 97.131Z" fill="white"/>
<path d="M715.642 55.5153V63.2593L670.937 87.4533V75.6253L700.799 59.3873L670.937 43.1493V31.3213L715.642 55.5153Z" fill="white"/>
<path d="M1862.72 318.951C1858.57 316.046 1854.02 313.921 1849.27 312.574C1848.43 317.688 1843.85 321.456 1838.56 321.186C1833.26 320.916 1829.11 316.715 1828.79 311.541C1823.94 312.386 1819.19 314.037 1814.77 316.504C1817.79 320.723 1817.23 326.614 1813.29 330.173C1809.35 333.732 1803.43 333.684 1799.54 330.259C1796.64 334.404 1794.51 338.958 1793.18 343.692C1798.29 344.537 1802.05 349.099 1801.78 354.395C1801.51 359.691 1797.29 363.859 1792.12 364.179C1792.98 369.037 1794.63 373.783 1797.09 378.203C1801.3 375.178 1807.2 375.721 1810.78 379.676C1814.33 383.618 1814.29 389.56 1810.85 393.437C1814.99 396.342 1819.55 398.467 1824.28 399.801C1825.13 394.687 1829.7 390.919 1835 391.189C1840.29 391.459 1844.45 395.66 1844.77 400.834C1849.61 399.989 1854.36 398.338 1858.78 395.871C1855.77 391.652 1856.32 385.761 1860.27 382.202C1864.21 378.643 1870.12 378.691 1874.01 382.116C1876.92 377.971 1879.04 373.417 1880.38 368.683C1875.26 367.837 1871.51 363.276 1871.78 357.98C1872.05 352.684 1876.26 348.516 1881.44 348.196C1880.59 343.351 1878.94 338.605 1876.47 334.185C1872.24 337.208 1866.35 336.654 1862.79 332.712C1859.22 328.758 1859.27 322.84 1862.72 318.951ZM1853.07 341.49C1861.19 350.479 1860.49 364.353 1851.49 372.481C1842.49 380.609 1828.61 379.888 1820.5 370.899C1812.37 361.897 1813.06 348.022 1822.07 339.895C1831.07 331.767 1844.94 332.488 1853.07 341.49Z" fill="#E5F0F8"/>
<path d="M1817.26 456.139C1811.32 468.143 1796.76 473.07 1784.74 467.115C1772.72 461.16 1767.82 446.596 1773.76 434.592C1779.72 422.57 1794.27 417.643 1806.3 423.598C1818.32 429.553 1823.22 444.117 1817.26 456.139ZM1844.37 456.899C1845.67 451.453 1846.01 445.905 1845.46 440.475C1839.86 441.685 1834.12 438.512 1832.25 432.954C1830.37 427.396 1833 421.413 1838.2 418.979C1835.36 414.339 1831.73 410.128 1827.39 406.585C1824.28 411.398 1817.99 413.224 1812.73 410.616C1807.46 408.009 1805.11 401.902 1807.05 396.507C1801.6 395.205 1796.05 394.871 1790.64 395.424C1791.85 401.029 1788.69 406.748 1783.13 408.623C1777.57 410.499 1771.57 407.859 1769.14 402.667C1764.49 405.525 1760.28 409.153 1756.73 413.488C1761.56 416.585 1763.4 422.88 1760.78 428.162C1758.17 433.426 1752.04 435.792 1746.66 433.833C1745.35 439.279 1745.02 444.827 1745.57 450.239C1751.18 449.029 1756.91 452.202 1758.79 457.76C1760.67 463.318 1758.04 469.301 1752.84 471.735C1755.68 476.375 1759.31 480.586 1763.65 484.129C1766.76 479.316 1773.05 477.49 1778.31 480.098C1783.57 482.705 1785.93 488.812 1783.99 494.207C1789.44 495.509 1794.98 495.843 1800.4 495.291C1799.19 489.686 1802.35 483.967 1807.91 482.092C1813.47 480.216 1819.47 482.856 1821.9 488.048C1826.54 485.208 1830.75 481.58 1834.3 477.245C1829.46 474.121 1827.64 467.835 1830.25 462.571C1832.86 457.288 1838.97 454.931 1844.37 456.899Z" fill="#E5F0F8"/>
<g filter="url(#filter2_d_76_124152)">
<path d="M276.197 205.734C276 203.572 275.126 201.892 273.574 200.694C272.041 199.475 269.85 198.866 267.001 198.866C265.114 198.866 263.542 199.112 262.285 199.603C261.027 200.094 260.084 200.772 259.455 201.637C258.826 202.482 258.502 203.454 258.483 204.555C258.443 205.459 258.62 206.254 259.013 206.942C259.426 207.63 260.015 208.239 260.782 208.77C261.568 209.28 262.511 209.732 263.611 210.125C264.712 210.518 265.949 210.862 267.325 211.157L272.512 212.336C275.499 212.984 278.132 213.849 280.412 214.93C282.711 216.01 284.636 217.297 286.189 218.791C287.761 220.284 288.949 222.004 289.755 223.949C290.561 225.894 290.973 228.075 290.993 230.492C290.973 234.304 290.01 237.576 288.104 240.307C286.198 243.038 283.457 245.131 279.881 246.585C276.324 248.039 272.031 248.766 267.001 248.766C261.951 248.766 257.549 248.01 253.796 246.497C250.043 244.984 247.125 242.685 245.042 239.6C242.959 236.515 241.888 232.614 241.83 227.898H255.8C255.918 229.844 256.439 231.465 257.363 232.762C258.286 234.059 259.554 235.041 261.165 235.709C262.796 236.377 264.682 236.711 266.824 236.711C268.789 236.711 270.459 236.446 271.835 235.915C273.23 235.385 274.301 234.648 275.047 233.705C275.794 232.762 276.177 231.681 276.197 230.463C276.177 229.323 275.823 228.35 275.136 227.545C274.448 226.719 273.387 226.012 271.952 225.423C270.538 224.813 268.73 224.253 266.529 223.743L260.222 222.269C254.995 221.07 250.878 219.135 247.872 216.462C244.865 213.77 243.372 210.135 243.392 205.557C243.372 201.823 244.374 198.552 246.398 195.742C248.422 192.932 251.222 190.741 254.798 189.169C258.375 187.597 262.452 186.811 267.03 186.811C271.707 186.811 275.764 187.607 279.203 189.199C282.661 190.77 285.344 192.981 287.25 195.83C289.156 198.679 290.128 201.981 290.168 205.734H276.197ZM306.821 248L295.031 202.727H309.503L315.604 231.73H315.987L322.531 202.727H336.649L343.369 231.524H343.752L349.676 202.727H364.148L352.329 248H336.914L329.84 221.62H329.339L322.265 248H306.821ZM369.933 248V202.727H384.346V248H369.933ZM377.154 197.451C375.13 197.451 373.391 196.783 371.937 195.447C370.483 194.091 369.756 192.46 369.756 190.554C369.756 188.668 370.483 187.057 371.937 185.721C373.391 184.365 375.13 183.687 377.154 183.687C379.198 183.687 380.937 184.365 382.371 185.721C383.825 187.057 384.552 188.668 384.552 190.554C384.552 192.46 383.825 194.091 382.371 195.447C380.937 196.783 379.198 197.451 377.154 197.451ZM419.251 202.727V213.338H390.13V202.727H419.251ZM396.202 248V200.428C396.202 196.931 396.86 194.032 398.177 191.733C399.493 189.415 401.321 187.685 403.659 186.546C405.997 185.386 408.699 184.807 411.764 184.807C413.769 184.807 415.655 184.964 417.423 185.278C419.212 185.573 420.538 185.838 421.403 186.074L419.104 196.626C418.573 196.449 417.925 196.302 417.158 196.184C416.412 196.066 415.704 196.007 415.036 196.007C413.346 196.007 412.187 196.38 411.558 197.127C410.929 197.874 410.615 198.896 410.615 200.192V248H396.202ZM451.739 202.727V213.338H423.178V202.727H451.739ZM429.162 191.881H443.575V233.764C443.575 234.648 443.712 235.365 443.987 235.915C444.282 236.446 444.705 236.829 445.255 237.065C445.805 237.281 446.463 237.389 447.229 237.389C447.78 237.389 448.359 237.34 448.968 237.242C449.597 237.124 450.069 237.026 450.383 236.947L452.564 247.352C451.877 247.548 450.904 247.794 449.646 248.088C448.408 248.383 446.925 248.57 445.196 248.648C441.816 248.806 438.918 248.413 436.501 247.469C434.104 246.507 432.266 245.013 430.989 242.989C429.732 240.965 429.122 238.421 429.162 235.355V191.881ZM513.444 187.636H528.004V226.572C528.004 231.072 526.933 234.992 524.791 238.332C522.65 241.653 519.663 244.227 515.831 246.055C512 247.862 507.549 248.766 502.479 248.766C497.351 248.766 492.871 247.862 489.039 246.055C485.207 244.227 482.23 241.653 480.108 238.332C477.986 234.992 476.925 231.072 476.925 226.572V187.636H491.515V225.305C491.515 227.388 491.967 229.244 492.871 230.875C493.794 232.506 495.081 233.783 496.732 234.707C498.382 235.631 500.298 236.092 502.479 236.092C504.66 236.092 506.566 235.631 508.197 234.707C509.848 233.783 511.135 232.506 512.059 230.875C512.982 229.244 513.444 227.388 513.444 225.305V187.636ZM551.738 187.636V248H537.149V187.636H551.738Z" fill="white"/>
</g>
<g filter="url(#filter3_d_76_124152)">
<path d="M1584.2 233.734C1584 231.572 1583.13 229.892 1581.57 228.694C1580.04 227.475 1577.85 226.866 1575 226.866C1573.11 226.866 1571.54 227.112 1570.28 227.603C1569.03 228.094 1568.08 228.772 1567.46 229.637C1566.83 230.482 1566.5 231.454 1566.48 232.555C1566.44 233.459 1566.62 234.254 1567.01 234.942C1567.43 235.63 1568.02 236.239 1568.78 236.77C1569.57 237.28 1570.51 237.732 1571.61 238.125C1572.71 238.518 1573.95 238.862 1575.32 239.157L1580.51 240.336C1583.5 240.984 1586.13 241.849 1588.41 242.93C1590.71 244.01 1592.64 245.297 1594.19 246.791C1595.76 248.284 1596.95 250.004 1597.75 251.949C1598.56 253.894 1598.97 256.075 1598.99 258.492C1598.97 262.304 1598.01 265.576 1596.1 268.307C1594.2 271.038 1591.46 273.131 1587.88 274.585C1584.32 276.039 1580.03 276.766 1575 276.766C1569.95 276.766 1565.55 276.01 1561.8 274.497C1558.04 272.984 1555.13 270.685 1553.04 267.6C1550.96 264.515 1549.89 260.614 1549.83 255.898H1563.8C1563.92 257.844 1564.44 259.465 1565.36 260.762C1566.29 262.059 1567.55 263.041 1569.16 263.709C1570.8 264.377 1572.68 264.711 1574.82 264.711C1576.79 264.711 1578.46 264.446 1579.83 263.915C1581.23 263.385 1582.3 262.648 1583.05 261.705C1583.79 260.762 1584.18 259.681 1584.2 258.463C1584.18 257.323 1583.82 256.35 1583.14 255.545C1582.45 254.719 1581.39 254.012 1579.95 253.423C1578.54 252.813 1576.73 252.253 1574.53 251.743L1568.22 250.269C1562.99 249.07 1558.88 247.135 1555.87 244.462C1552.87 241.77 1551.37 238.135 1551.39 233.557C1551.37 229.823 1552.37 226.552 1554.4 223.742C1556.42 220.932 1559.22 218.741 1562.8 217.169C1566.37 215.597 1570.45 214.811 1575.03 214.811C1579.71 214.811 1583.76 215.607 1587.2 217.199C1590.66 218.77 1593.34 220.981 1595.25 223.83C1597.16 226.679 1598.13 229.981 1598.17 233.734H1584.2ZM1614.82 276L1603.03 230.727H1617.5L1623.6 259.73H1623.99L1630.53 230.727H1644.65L1651.37 259.524H1651.75L1657.68 230.727H1672.15L1660.33 276H1644.91L1637.84 249.62H1637.34L1630.27 276H1614.82ZM1677.93 276V230.727H1692.35V276H1677.93ZM1685.15 225.451C1683.13 225.451 1681.39 224.783 1679.94 223.447C1678.48 222.091 1677.76 220.46 1677.76 218.554C1677.76 216.668 1678.48 215.057 1679.94 213.721C1681.39 212.365 1683.13 211.687 1685.15 211.687C1687.2 211.687 1688.94 212.365 1690.37 213.721C1691.83 215.057 1692.55 216.668 1692.55 218.554C1692.55 220.46 1691.83 222.091 1690.37 223.447C1688.94 224.783 1687.2 225.451 1685.15 225.451ZM1727.25 230.727V241.338H1698.13V230.727H1727.25ZM1704.2 276V228.428C1704.2 224.931 1704.86 222.032 1706.18 219.733C1707.49 217.415 1709.32 215.685 1711.66 214.546C1714 213.386 1716.7 212.807 1719.76 212.807C1721.77 212.807 1723.66 212.964 1725.42 213.278C1727.21 213.573 1728.54 213.838 1729.4 214.074L1727.1 224.626C1726.57 224.449 1725.92 224.302 1725.16 224.184C1724.41 224.066 1723.7 224.007 1723.04 224.007C1721.35 224.007 1720.19 224.38 1719.56 225.127C1718.93 225.874 1718.61 226.896 1718.61 228.192V276H1704.2ZM1759.74 230.727V241.338H1731.18V230.727H1759.74ZM1737.16 219.881H1751.57V261.764C1751.57 262.648 1751.71 263.365 1751.99 263.915C1752.28 264.446 1752.7 264.829 1753.25 265.065C1753.8 265.281 1754.46 265.389 1755.23 265.389C1755.78 265.389 1756.36 265.34 1756.97 265.242C1757.6 265.124 1758.07 265.026 1758.38 264.947L1760.56 275.352C1759.88 275.548 1758.9 275.794 1757.65 276.088C1756.41 276.383 1754.92 276.57 1753.2 276.648C1749.82 276.806 1746.92 276.413 1744.5 275.469C1742.1 274.507 1740.27 273.013 1738.99 270.989C1737.73 268.965 1737.12 266.421 1737.16 263.355V219.881Z" fill="white"/>
</g>
</g>
<defs>
<filter id="filter0_d_76_124152" x="0" y="0" width="2066.98" height="1504.17" filterUnits="userSpaceOnUse" color-interpolation-filters="sRGB">
<feFlood flood-opacity="0" result="BackgroundImageFix"/>
<feColorMatrix in="SourceAlpha" type="matrix" values="0 0 0 0 0 0 0 0 0 0 0 0 0 0 0 0 0 0 127 0" result="hardAlpha"/>
<feOffset dy="4"/>
<feGaussianBlur stdDeviation="2"/>
<feComposite in2="hardAlpha" operator="out"/>
<feColorMatrix type="matrix" values="0 0 0 0 0 0 0 0 0 0 0 0 0 0 0 0 0 0 0.25 0"/>
<feBlend mode="normal" in2="BackgroundImageFix" result="effect1_dropShadow_76_124152"/>
<feBlend mode="normal" in="SourceGraphic" in2="effect1_dropShadow_76_124152" result="shape"/>
</filter>
<filter id="filter1_d_76_124152" x="931.891" y="1082.69" width="452.669" height="195.808" filterUnits="userSpaceOnUse" color-interpolation-filters="sRGB">
<feFlood flood-opacity="0" result="BackgroundImageFix"/>
<feColorMatrix in="SourceAlpha" type="matrix" values="0 0 0 0 0 0 0 0 0 0 0 0 0 0 0 0 0 0 127 0" result="hardAlpha"/>
<feOffset dy="4"/>
<feGaussianBlur stdDeviation="2"/>
<feComposite in2="hardAlpha" operator="out"/>
<feColorMatrix type="matrix" values="0 0 0 0 0 0 0 0 0 0 0 0 0 0 0 0 0 0 0.25 0"/>
<feBlend mode="normal" in2="BackgroundImageFix" result="effect1_dropShadow_76_124152"/>
<feBlend mode="normal" in="SourceGraphic" in2="effect1_dropShadow_76_124152" result="shape"/>
</filter>
<filter id="filter2_d_76_124152" x="237.83" y="183.687" width="317.909" height="73.1973" filterUnits="userSpaceOnUse" color-interpolation-filters="sRGB">
<feFlood flood-opacity="0" result="BackgroundImageFix"/>
<feColorMatrix in="SourceAlpha" type="matrix" values="0 0 0 0 0 0 0 0 0 0 0 0 0 0 0 0 0 0 127 0" result="hardAlpha"/>
<feOffset dy="4"/>
<feGaussianBlur stdDeviation="2"/>
<feComposite in2="hardAlpha" operator="out"/>
<feColorMatrix type="matrix" values="0 0 0 0 0 0 0 0 0 0 0 0 0 0 0 0 0 0 0.25 0"/>
<feBlend mode="normal" in2="BackgroundImageFix" result="effect1_dropShadow_76_124152"/>
<feBlend mode="normal" in="SourceGraphic" in2="effect1_dropShadow_76_124152" result="shape"/>
</filter>
<filter id="filter3_d_76_124152" x="1545.83" y="211.687" width="218.735" height="73.1973" filterUnits="userSpaceOnUse" color-interpolation-filters="sRGB">
<feFlood flood-opacity="0" result="BackgroundImageFix"/>
<feColorMatrix in="SourceAlpha" type="matrix" values="0 0 0 0 0 0 0 0 0 0 0 0 0 0 0 0 0 0 127 0" result="hardAlpha"/>
<feOffset dy="4"/>
<feGaussianBlur stdDeviation="2"/>
<feComposite in2="hardAlpha" operator="out"/>
<feColorMatrix type="matrix" values="0 0 0 0 0 0 0 0 0 0 0 0 0 0 0 0 0 0 0.25 0"/>
<feBlend mode="normal" in2="BackgroundImageFix" result="effect1_dropShadow_76_124152"/>
<feBlend mode="normal" in="SourceGraphic" in2="effect1_dropShadow_76_124152" result="shape"/>
</filter>
</defs>
</svg>
