<svg width="32" height="33" viewBox="0 0 32 33" fill="none" xmlns="http://www.w3.org/2000/svg">
<g clip-path="url(#clip0_55_248)">
<path d="M27.5336 11.1385C27.6066 9.23282 25.2939 8.20307 23.9311 9.55795C22.5484 10.9328 23.6159 13.2809 25.5472 13.1668C26.0005 14.0986 27.2339 14.3054 27.9664 13.577C28.7082 12.8394 28.4935 11.5807 27.5336 11.1385Z" fill="#CDD1D3"/>
<path d="M27.3587 10.21C26.7685 8.85789 24.9902 8.50489 23.931 9.55795C22.7632 10.7191 23.3235 12.6901 24.8802 13.1002C24.1717 11.4789 25.6505 9.75889 27.3587 10.21Z" fill="#B6B7B7"/>
<path d="M29.3911 17.7046C30.1209 17.7046 30.7125 17.113 30.7125 16.3833C30.7125 15.6536 30.1209 15.062 29.3911 15.062C28.6614 15.062 28.0698 15.6536 28.0698 16.3833C28.0698 17.113 28.6614 17.7046 29.3911 17.7046Z" fill="#CDD1D3"/>
<path d="M22.482 3.66424C22.4883 2.68143 21.7709 1.81849 20.7706 1.67074C19.3709 1.46393 18.2041 2.73612 18.5257 4.11006C17.6891 4.42462 17.0435 5.17162 16.9036 6.11862C16.6984 7.50737 17.6579 8.79943 19.0466 9.00462C20.2313 9.17962 21.3451 8.50681 21.7744 7.44324C22.9961 8.06787 24.4699 7.30649 24.6701 5.95156C24.8608 4.66093 23.7846 3.53118 22.482 3.66424Z" fill="#CDD1D3"/>
<path d="M19.9039 5.21731C20.2141 4.99537 20.4123 4.65394 20.4454 4.274C20.5256 3.35575 21.2149 2.62744 22.0968 2.47319C21.0751 1.07125 18.8845 1.55387 18.5197 3.22344C18.4531 3.528 18.4599 3.82887 18.5257 4.11006C17.689 4.42462 17.0434 5.17162 16.9036 6.11862C16.6704 7.697 17.9333 9.10181 19.5358 9.02906C18.4742 7.90387 18.6548 6.11112 19.9039 5.21731Z" fill="#B6B7B7"/>
<path d="M26.9985 20.7742C25.5288 16.9451 21.8178 14.2268 17.4714 14.2268C13.1404 14.2268 9.44013 16.9258 7.95975 20.7334C7.8745 20.7499 5.5545 20.5879 3.45944 22.4202C4.72794 23.1017 4.2225 25.0047 2.8135 25.0047C2.56888 24.9836 2.16825 25.0856 1.70438 24.796C1.43481 25.4017 1.25113 26.1819 1.16919 26.8636C2.29194 26.8636 27.627 26.8636 30.9503 26.8636V25.2829C30.9503 22.9832 29.2208 21.0693 26.9985 20.7742Z" fill="#FFB103"/>
<path d="M11.0924 21.0784H23.8474C24.2918 21.0784 24.578 20.5989 24.3585 20.2124C22.9974 17.8162 20.4225 16.1996 17.4698 16.1996C14.5223 16.1996 11.9511 17.8106 10.5882 20.1999C10.3648 20.5915 10.6416 21.0784 11.0924 21.0784Z" fill="#49A8E2"/>
<path d="M12.1754 20.2C13.4145 18.0278 15.6521 16.4994 18.2633 16.2394C18.0023 16.2134 17.7377 16.1997 17.4698 16.1997C14.5222 16.1997 11.951 17.8106 10.5882 20.2C10.3648 20.5916 10.6417 21.0785 11.0924 21.0785H12.6797C12.2288 21.0784 11.952 20.5915 12.1754 20.2Z" fill="#209AC9"/>
<path d="M18.2152 23.5676H16.6187C16.352 23.5676 16.1357 23.3514 16.1357 23.0846C16.1357 22.8179 16.3519 22.6017 16.6187 22.6017H18.2152C18.4819 22.6017 18.6981 22.8179 18.6981 23.0846C18.6981 23.3514 18.4819 23.5676 18.2152 23.5676Z" fill="#DB700F"/>
<path d="M19.0591 16.3596V21.0784H23.8475C24.292 21.0784 24.5781 20.5989 24.3586 20.2124C23.2485 18.2579 21.3306 16.8226 19.0591 16.3596Z" fill="#68BFEA"/>
<path d="M2.42713 25.0046C2.16213 25.0046 1.91488 24.9273 1.70438 24.7959C1.43481 25.4016 1.25113 26.1819 1.16919 26.8635H2.78256C2.85875 26.2302 3.02281 25.5119 3.26188 24.9275C2.93319 25.0421 2.71988 24.9928 2.42713 25.0046Z" fill="#E0930A"/>
<path d="M7.93441 20.7334C6.2256 20.7334 4.65879 21.3712 3.45947 22.4201C3.8531 22.6316 4.13272 23.0294 4.17947 23.4936C4.6806 22.8138 5.07285 22.4201 5.07285 22.4201C5.83604 21.7526 6.74822 21.2519 7.75097 20.9759C7.93541 20.9251 7.93216 20.7399 7.93441 20.7334Z" fill="#E0930A"/>
<path d="M2.81367 22.2251H2.42736C1.65217 22.2251 1.02148 22.8558 1.02148 23.6311C1.02148 24.4063 1.65211 25.0369 2.42736 25.0369H2.81367C3.58886 25.0369 4.21955 24.4063 4.21955 23.6311C4.21955 22.8558 3.58886 22.2251 2.81367 22.2251Z" fill="#FC671D"/>
<path d="M3.38348 22.3462C2.99467 22.1731 2.70236 22.2404 2.42736 22.2251C1.65217 22.2251 1.02148 22.8558 1.02148 23.631C1.02148 24.4062 1.65211 25.0369 2.42736 25.0369C2.70442 25.0215 2.99261 25.0898 3.38348 24.9158C2.27048 24.4202 2.27055 22.8418 3.38348 22.3462Z" fill="#FF5206"/>
<path d="M30.7284 26.7347C29.3944 26.7347 2.50855 26.7347 1.2618 26.7347C0.565117 26.7347 -0.00488281 27.3047 -0.00488281 28.0014C-0.00488281 28.6981 0.565117 29.2682 1.26187 29.2682C5.57874 29.2682 28.2962 29.2682 30.7284 29.2682C31.4251 29.2682 31.9952 28.6982 31.9952 28.0014C31.9951 27.3047 31.4251 26.7347 30.7284 26.7347Z" fill="#AAE8F2"/>
<path d="M1.60049 28.0014C1.60049 27.3047 2.17049 26.7347 2.86724 26.7347H1.26187C0.565117 26.7347 -0.00488281 27.3047 -0.00488281 28.0014C-0.00488281 28.6981 0.565117 29.2682 1.26187 29.2682H2.86724C2.17049 29.2681 1.60049 28.6981 1.60049 28.0014Z" fill="#91DDE5"/>
<path d="M24.6321 31.1881C26.387 31.1881 27.8096 29.7655 27.8096 28.0106C27.8096 26.2557 26.387 24.8331 24.6321 24.8331C22.8772 24.8331 21.4546 26.2557 21.4546 28.0106C21.4546 29.7655 22.8772 31.1881 24.6321 31.1881Z" fill="#485760"/>
<path d="M24.6322 29.2279C25.3045 29.2279 25.8495 28.6829 25.8495 28.0106C25.8495 27.3382 25.3045 26.7932 24.6322 26.7932C23.9598 26.7932 23.4148 27.3382 23.4148 28.0106C23.4148 28.6829 23.9598 29.2279 24.6322 29.2279Z" fill="#818587"/>
<path d="M23.0644 28.0104C23.0644 26.5336 24.0718 25.2924 25.437 24.936C25.1799 24.8689 24.9102 24.8329 24.6321 24.8329C22.8772 24.8329 21.4546 26.2555 21.4546 28.0104C21.4546 30.0879 23.4205 31.6113 25.4369 31.0848C24.0719 30.7283 23.0644 29.4871 23.0644 28.0104Z" fill="#404B51"/>
<path d="M25.2408 26.9572C24.4377 26.4919 23.4148 27.0677 23.4148 28.0104C23.4148 28.9532 24.438 29.5286 25.2408 29.0636C24.4306 28.5942 24.4289 27.4274 25.2408 26.9572Z" fill="#717677"/>
<path d="M8.15602 31.1881C9.9109 31.1881 11.3335 29.7655 11.3335 28.0106C11.3335 26.2557 9.9109 24.8331 8.15602 24.8331C6.40113 24.8331 4.97852 26.2557 4.97852 28.0106C4.97852 29.7655 6.40113 31.1881 8.15602 31.1881Z" fill="#485760"/>
<path d="M8.1561 29.2279C8.82843 29.2279 9.37347 28.6829 9.37347 28.0106C9.37347 27.3382 8.82843 26.7932 8.1561 26.7932C7.48376 26.7932 6.93872 27.3382 6.93872 28.0106C6.93872 28.6829 7.48376 29.2279 8.1561 29.2279Z" fill="#818587"/>
<path d="M6.58802 28.0104C6.58802 26.5336 7.59552 25.2924 8.96058 24.936C6.94208 24.409 4.97827 25.9346 4.97827 28.0104C4.97827 30.0879 6.94421 31.6112 8.96058 31.0847C7.59558 30.7283 6.58802 29.4871 6.58802 28.0104Z" fill="#404B51"/>
<path d="M8.76448 26.9572C7.96135 26.4919 6.93848 27.0677 6.93848 28.0104C6.93848 28.9532 7.96166 29.5286 8.76448 29.0636C7.95435 28.5942 7.95266 27.4274 8.76448 26.9572Z" fill="#717677"/>
</g>
<defs>
<clipPath id="clip0_55_248">
<rect width="32" height="32" fill="white" transform="translate(-0.00488281 0.419067)"/>
</clipPath>
</defs>
</svg>
