<svg width="24" height="25" viewBox="0 0 24 25" fill="none" xmlns="http://www.w3.org/2000/svg">
<g clip-path="url(#clip0_32_123172)">
<path d="M19.4991 13.8967C20.1242 13.0024 20.4908 11.9141 20.4908 10.7402C20.4908 7.69338 18.0209 5.22345 14.974 5.22345C12.4644 5.22345 10.3462 6.89926 9.67725 9.19289V15.4823H19.671L19.4991 13.8967Z" fill="#FFD900"/>
<path d="M20.4908 10.7402C20.4908 7.69338 18.0208 5.22345 14.974 5.22345C14.7909 5.22345 14.6102 5.23344 14.4316 5.25085C17.2194 5.52772 19.3966 7.87962 19.3966 10.7402C19.3966 11.9141 19.0299 13.0024 18.4049 13.8967L18.5768 15.4823H19.6709L19.499 13.8967C20.1241 13.0024 20.4908 11.9141 20.4908 10.7402Z" fill="#FFBB00"/>
<path d="M23.6432 11.097H22.067C21.87 11.097 21.7102 10.9373 21.7102 10.7402C21.7102 10.5431 21.87 10.3834 22.067 10.3834H23.6432C23.8402 10.3834 24 10.5431 24 10.7402C24 10.9373 23.8402 11.097 23.6432 11.097Z" fill="#FFD900"/>
<path d="M19.9898 6.08078C19.8985 6.08078 19.8072 6.04595 19.7376 5.97631C19.5982 5.83697 19.5982 5.61105 19.7376 5.47176L20.8521 4.35715C20.9915 4.21777 21.2174 4.21781 21.3567 4.3571C21.4961 4.49644 21.4961 4.72236 21.3567 4.86165L20.2422 5.97626C20.1725 6.0459 20.0812 6.08078 19.9898 6.08078Z" fill="#FFD900"/>
<path d="M14.974 4.00248C14.7769 4.00248 14.6172 3.84278 14.6172 3.64569V2.0695C14.6172 1.87241 14.7769 1.71271 14.974 1.71271C15.171 1.71271 15.3308 1.87241 15.3308 2.0695V3.64569C15.3308 3.84278 15.171 4.00248 14.974 4.00248Z" fill="#FFD900"/>
<path d="M9.95791 6.07968C9.86662 6.07968 9.77528 6.04486 9.70564 5.97521L8.59108 4.86065C8.45174 4.72126 8.45174 4.49539 8.59108 4.35605C8.73041 4.21676 8.95633 4.21676 9.09562 4.35605L10.2102 5.47062C10.3495 5.61 10.3495 5.83587 10.2102 5.97521C10.1405 6.04486 10.0492 6.07968 9.95791 6.07968Z" fill="#FFD900"/>
<path d="M12.2592 4.54267C12.1192 4.54267 11.9863 4.45975 11.9294 4.32232L11.6278 3.59418C11.5524 3.41213 11.6389 3.20343 11.8209 3.12803C12.0029 3.05262 12.2117 3.13902 12.2871 3.32112L12.5887 4.04926C12.6641 4.23131 12.5777 4.44001 12.3956 4.51541C12.3509 4.53387 12.3047 4.54267 12.2592 4.54267Z" fill="#FFA400"/>
<path d="M8.41934 8.38214C8.37386 8.38214 8.32757 8.37338 8.28295 8.35488L7.55482 8.05327C7.37276 7.97787 7.28632 7.76917 7.36172 7.58712C7.43712 7.40511 7.64587 7.31843 7.82788 7.39402L8.55601 7.69563C8.73807 7.77103 8.82451 7.97973 8.74911 8.16179C8.69221 8.29917 8.55934 8.38214 8.41934 8.38214Z" fill="#FFA400"/>
<path d="M22.2565 14.1136C22.211 14.1136 22.1647 14.1049 22.1201 14.0864L21.392 13.7848C21.2099 13.7094 21.1235 13.5007 21.1989 13.3186C21.2743 13.1366 21.4831 13.05 21.665 13.1255L22.3932 13.4271C22.5752 13.5025 22.6617 13.7112 22.5863 13.8933C22.5294 14.0307 22.3965 14.1136 22.2565 14.1136Z" fill="#FFA400"/>
<path d="M21.5286 8.38213C21.3886 8.38213 21.2558 8.29921 21.1989 8.16177C21.1235 7.97972 21.2099 7.77102 21.392 7.69562L22.1201 7.39401C22.3022 7.31861 22.5109 7.40505 22.5863 7.58711C22.6617 7.76916 22.5752 7.97786 22.3932 8.05326L21.665 8.35487C21.6204 8.37337 21.5741 8.38213 21.5286 8.38213Z" fill="#FFA400"/>
<path d="M17.6888 4.54266C17.6432 4.54266 17.597 4.5339 17.5524 4.5154C17.3703 4.44 17.2839 4.2313 17.3593 4.04924L17.6609 3.32111C17.7363 3.1391 17.945 3.05247 18.127 3.12801C18.3091 3.20341 18.3955 3.41211 18.3201 3.59417L18.0185 4.3223C17.9616 4.45964 17.8288 4.54266 17.6888 4.54266Z" fill="#FFA400"/>
<path d="M19.5448 14.7087H16.1883C16.0482 14.7087 15.9294 14.6011 15.9035 14.4536C15.4131 11.6509 13.1043 9.53485 10.3393 9.5662C7.26119 9.60112 4.80001 12.3275 4.80001 15.6258V16.1126C4.80001 16.284 4.6703 16.423 4.51027 16.423H3.64521C1.66021 16.423 0.0148295 18.1241 0.000101104 20.2509C-0.0147239 22.3945 1.60269 24.1373 3.60001 24.1373H19.6C22.0411 24.1373 24.018 22.0073 23.9999 19.3873C23.9819 16.7879 21.9709 14.7087 19.5448 14.7087Z" fill="#C8EFFE"/>
<path d="M19.2543 13.8926H18.1602C20.5503 13.8926 22.5313 15.8044 22.549 18.1944C22.5669 20.6034 20.6194 22.5618 18.2146 22.5618H19.3087C21.7136 22.5618 23.6611 20.6034 23.6432 18.1944C23.6255 15.8044 21.6444 13.8926 19.2543 13.8926Z" fill="#99E2FC"/>
<path d="M14.5731 13.6581C14.5985 13.7937 14.7156 13.8927 14.8536 13.8927H15.9478C15.8098 13.8927 15.6927 13.7937 15.6672 13.6581C15.1842 11.0811 12.9096 9.13549 10.1858 9.16432C10.0223 9.16603 9.86063 9.1754 9.70093 9.19124C12.149 9.43338 14.1265 11.2758 14.5731 13.6581Z" fill="#99E2FC"/>
<path d="M7.09299 15.4689C7.29008 15.4689 7.44978 15.3092 7.44978 15.1121C7.44978 14.915 7.29008 14.7553 7.09299 14.7553H4.72867V15.1834C4.72867 15.3411 4.60089 15.4688 4.44324 15.4688H3.59104C3.59071 15.4688 3.59042 15.4689 3.59009 15.4689H7.09299Z" fill="#99E2FC"/>
</g>
<defs>
<clipPath id="clip0_32_123172">
<rect width="24" height="24" fill="white" transform="translate(0 0.137268)"/>
</clipPath>
</defs>
</svg>
