<svg width="32" height="33" viewBox="0 0 32 33" fill="none" xmlns="http://www.w3.org/2000/svg">
<g id="moon" clip-path="url(#clip0_55_333)">
<path id="Vector" d="M30.7785 25.0137C27.9291 29.4585 22.9497 32.4067 17.2811 32.4189C8.49899 32.438 1.28805 25.3343 1.18187 16.5529C1.08199 8.29019 7.2208 1.44038 15.1836 0.420752C15.3537 0.39894 15.4646 0.593627 15.3612 0.730502C13.4412 3.27181 12.303 6.43588 12.303 9.86656C12.303 18.2455 19.0952 25.0377 27.4741 25.0377C28.5369 25.0377 29.5736 24.9287 30.5746 24.7205C30.7426 24.6856 30.8711 24.8692 30.7785 25.0137Z" fill="#EFDA45"/>
<path id="Vector_2" d="M30.5749 24.7203C30.7427 24.6854 30.8712 24.8686 30.7787 25.0129C27.9233 29.4674 22.9293 32.4191 17.2457 32.4191C8.37291 32.4191 1.18091 25.2264 1.18091 16.3543C1.18091 12.8038 2.33241 9.52263 4.2831 6.86301C3.84022 8.31582 3.59803 9.85601 3.58835 11.4517C3.53416 20.3912 10.7139 27.6164 19.6536 27.616C22.893 27.6159 25.9083 26.6571 28.4308 25.0073C29.1611 24.9623 29.8768 24.8655 30.5749 24.7203Z" fill="#EDC148"/>
</g>
<defs>
<clipPath id="clip0_55_333">
<rect width="32" height="32" fill="white" transform="translate(-0.00488281 0.419067)"/>
</clipPath>
</defs>
</svg>
