<svg width="24" height="25" viewBox="0 0 24 25" fill="none" xmlns="http://www.w3.org/2000/svg">
<g id="humidity 1" clip-path="url(#clip0_32_123203)">
<g id="Group">
<path id="Vector" d="M21.2234 17.8374C21.2234 23.8062 16.0141 24.1373 14.4148 24.1373C12.8154 24.1373 7.60571 23.8062 7.60571 17.8374C7.60571 13.109 12.7929 7.77069 14.1124 6.48926C14.2808 6.32576 14.5489 6.32576 14.7172 6.48926C16.0366 7.77073 21.2234 13.109 21.2234 17.8374Z" fill="#62DBFB"/>
<path id="Vector_2" d="M14.7172 6.48932C14.5489 6.32582 14.2807 6.32582 14.1124 6.48932C13.9987 6.59971 13.8558 6.7409 13.6904 6.90853C15.4437 8.68673 19.7748 13.5164 19.7748 17.8374C19.7748 23.0835 15.7508 23.9744 13.6905 24.1132C13.9743 24.1323 14.2212 24.1373 14.4148 24.1373C16.0142 24.1373 21.2235 23.8062 21.2235 17.8374C21.2234 13.109 16.0366 7.77075 14.7172 6.48932Z" fill="#01D0FB"/>
<path id="Vector_3" d="M10.2132 6.43372C10.2132 9.71004 7.36844 9.89183 6.49506 9.89183C5.62169 9.89183 2.77661 9.71009 2.77661 6.43372C2.77661 3.8382 5.60931 0.907998 6.32988 0.204592C6.4218 0.114827 6.56824 0.114827 6.66021 0.204592C7.38077 0.907998 10.2132 3.8382 10.2132 6.43372Z" fill="#62DBFB"/>
<path id="Vector_4" d="M6.6603 0.204592C6.56838 0.114827 6.42194 0.114827 6.32997 0.204592C6.20149 0.33003 6.00555 0.526624 5.77075 0.779186C6.85253 1.94281 8.76461 4.30109 8.76461 6.43372C8.76461 9.05319 6.94628 9.69448 5.77075 9.84636C6.06555 9.88447 6.31999 9.89183 6.49511 9.89183C7.36853 9.89183 10.2133 9.71004 10.2133 6.43372C10.2133 3.8382 7.38086 0.907998 6.6603 0.204592Z" fill="#01D0FB"/>
<g id="Group_2">
<path id="Vector_5" d="M13.8062 16.0834C13.8062 15.2428 13.2377 14.559 12.5388 14.559C11.84 14.559 11.2715 15.2428 11.2715 16.0834C11.2715 16.924 11.84 17.6078 12.5388 17.6078C13.2377 17.6078 13.8062 16.9239 13.8062 16.0834ZM11.9746 16.0834C11.9746 15.6382 12.233 15.2621 12.5388 15.2621C12.8447 15.2621 13.1031 15.6382 13.1031 16.0834C13.1031 16.5286 12.8447 16.9047 12.5388 16.9047C12.233 16.9047 11.9746 16.5286 11.9746 16.0834Z" fill="#EAF9FA"/>
<path id="Vector_6" d="M16.2898 17.6027C15.591 17.6027 15.0225 18.2865 15.0225 19.1271C15.0225 19.9676 15.591 20.6515 16.2898 20.6515C16.9887 20.6515 17.5572 19.9676 17.5572 19.1271C17.5572 18.2865 16.9887 17.6027 16.2898 17.6027ZM16.2898 19.9484C15.984 19.9484 15.7256 19.5723 15.7256 19.1271C15.7256 18.6819 15.984 18.3058 16.2898 18.3058C16.5957 18.3058 16.8541 18.6819 16.8541 19.1271C16.8541 19.5723 16.5957 19.9484 16.2898 19.9484Z" fill="#EAF9FA"/>
<path id="Vector_7" d="M16.6451 14.6314C16.491 14.5134 16.2703 14.5426 16.1522 14.6968L12.2717 19.7626C12.1536 19.9168 12.1829 20.1375 12.3371 20.2555C12.4008 20.3044 12.476 20.328 12.5506 20.328C12.6562 20.328 12.7607 20.2806 12.8299 20.1902L16.7104 15.1244C16.8284 14.9702 16.7992 14.7495 16.6451 14.6314Z" fill="#EAF9FA"/>
</g>
</g>
</g>
<defs>
<clipPath id="clip0_32_123203">
<rect width="24" height="24" fill="white" transform="translate(0 0.137268)"/>
</clipPath>
</defs>
</svg>
