<svg width="21" height="20" viewBox="0 0 21 20" fill="none" xmlns="http://www.w3.org/2000/svg">
<rect x="1.5" y="1" width="18" height="18" rx="4" fill="white" stroke="#01337A" stroke-width="2"/>
<circle cx="14.65" cy="13.65" r="2.65005" fill="#01337A"/>
<path d="M15.3125 12.7642C15.6202 12.9839 15.8204 13.3433 15.8204 13.75C15.8204 14.418 15.2793 14.9595 14.6118 14.961C13.9453 14.9624 13.3994 14.419 13.3984 13.752C13.398 13.3452 13.5981 12.9849 13.9053 12.7647C13.9624 12.7241 14.042 12.7412 14.0762 12.8023L14.1533 12.9395C14.1821 12.9907 14.1685 13.0557 14.1211 13.0908C13.9185 13.2412 13.7891 13.4795 13.7891 13.7495C13.7886 14.2002 14.1528 14.5704 14.6094 14.5704C15.0567 14.5704 15.4327 14.208 15.4297 13.7447C15.4283 13.4917 15.3091 13.2476 15.0972 13.0903C15.0498 13.0552 15.0367 12.9902 15.0655 12.9395L15.1426 12.8023C15.1768 12.7417 15.2559 12.7236 15.3125 12.7642ZM14.8047 13.7891V12.6172C14.8047 12.5522 14.7525 12.5 14.6875 12.5H14.5313C14.4663 12.5 14.4141 12.5522 14.4141 12.6172V13.7891C14.4141 13.854 14.4663 13.9063 14.5313 13.9063H14.6875C14.7525 13.9063 14.8047 13.854 14.8047 13.7891Z" fill="white"/>
<circle cx="14.6485" cy="13.6504" r="2.15004" stroke="white" stroke-width="0.2"/>
<circle cx="14.65" cy="6.65005" r="2.65005" fill="#01337A"/>
<path d="M15.3125 5.76417C15.6202 5.9839 15.8204 6.34328 15.8204 6.75002C15.8204 7.418 15.2793 7.95952 14.6118 7.96098C13.9453 7.96245 13.3994 7.41898 13.3984 6.75198C13.398 6.34523 13.5981 5.98487 13.9053 5.76465C13.9624 5.72413 14.042 5.74122 14.0762 5.80225L14.1533 5.93946C14.1821 5.99073 14.1685 6.05567 14.1211 6.09083C13.9185 6.24122 13.7891 6.47951 13.7891 6.74954C13.7886 7.20023 14.1528 7.57035 14.6094 7.57035C15.0567 7.57035 15.4327 7.20804 15.4297 6.74465C15.4283 6.49172 15.3091 6.24757 15.0972 6.09034C15.0498 6.05519 15.0367 5.99024 15.0655 5.93946L15.1426 5.80225C15.1768 5.7417 15.2559 5.72364 15.3125 5.76417ZM14.8047 6.78909V5.61719C14.8047 5.55225 14.7525 5.5 14.6875 5.5H14.5313C14.4663 5.5 14.4141 5.55225 14.4141 5.61719V6.78909C14.4141 6.85403 14.4663 6.90628 14.5313 6.90628H14.6875C14.7525 6.90628 14.8047 6.85403 14.8047 6.78909Z" fill="white"/>
<circle cx="14.6485" cy="6.65043" r="2.15004" stroke="white" stroke-width="0.2"/>
<circle cx="14.65" cy="6.65005" r="2.65005" fill="#01337A"/>
<path d="M15.3125 5.76417C15.6202 5.9839 15.8204 6.34328 15.8204 6.75002C15.8204 7.418 15.2793 7.95952 14.6118 7.96098C13.9453 7.96245 13.3994 7.41898 13.3984 6.75198C13.398 6.34523 13.5981 5.98487 13.9053 5.76465C13.9624 5.72413 14.042 5.74122 14.0762 5.80225L14.1533 5.93946C14.1821 5.99073 14.1685 6.05567 14.1211 6.09083C13.9185 6.24122 13.7891 6.47951 13.7891 6.74954C13.7886 7.20023 14.1528 7.57035 14.6094 7.57035C15.0567 7.57035 15.4327 7.20804 15.4297 6.74465C15.4283 6.49172 15.3091 6.24757 15.0972 6.09034C15.0498 6.05519 15.0367 5.99024 15.0655 5.93946L15.1426 5.80225C15.1768 5.7417 15.2559 5.72364 15.3125 5.76417ZM14.8047 6.78909V5.61719C14.8047 5.55225 14.7525 5.5 14.6875 5.5H14.5313C14.4663 5.5 14.4141 5.55225 14.4141 5.61719V6.78909C14.4141 6.85403 14.4663 6.90628 14.5313 6.90628H14.6875C14.7525 6.90628 14.8047 6.85403 14.8047 6.78909Z" fill="white"/>
<circle cx="14.6485" cy="6.65043" r="2.15004" stroke="white" stroke-width="0.2"/>
<circle cx="6.65005" cy="6.65005" r="2.65005" fill="#01337A"/>
<path d="M7.31254 5.76417C7.62016 5.9839 7.82036 6.34328 7.82036 6.75002C7.82036 7.418 7.27933 7.95952 6.61184 7.96098C5.94532 7.96245 5.39941 7.41898 5.39844 6.75198C5.39795 6.34523 5.59815 5.98487 5.90528 5.76465C5.96241 5.72413 6.04201 5.74122 6.07619 5.80225L6.15334 5.93946C6.18214 5.99073 6.16847 6.05567 6.12111 6.09083C5.91847 6.24122 5.78907 6.47951 5.78907 6.74954C5.78858 7.20023 6.15285 7.57035 6.6094 7.57035C7.05667 7.57035 7.43266 7.20804 7.42973 6.74465C7.42826 6.49172 7.30912 6.24757 7.0972 6.09034C7.04984 6.05519 7.03665 5.99024 7.06546 5.93946L7.14261 5.80225C7.17679 5.7417 7.25589 5.72364 7.31254 5.76417ZM6.80471 6.78909V5.61719C6.80471 5.55225 6.75247 5.5 6.68752 5.5H6.53127C6.46633 5.5 6.41408 5.55225 6.41408 5.61719V6.78909C6.41408 6.85403 6.46633 6.90628 6.53127 6.90628H6.68752C6.75247 6.90628 6.80471 6.85403 6.80471 6.78909Z" fill="white"/>
<circle cx="6.64848" cy="6.65043" r="2.15004" stroke="white" stroke-width="0.2"/>
<circle cx="6.65005" cy="13.65" r="2.65005" fill="#01337A"/>
<path d="M7.31254 12.7642C7.62016 12.9839 7.82036 13.3433 7.82036 13.75C7.82036 14.418 7.27933 14.9595 6.61184 14.961C5.94532 14.9624 5.39941 14.419 5.39844 13.752C5.39795 13.3452 5.59815 12.9849 5.90528 12.7647C5.96241 12.7241 6.04201 12.7412 6.07619 12.8023L6.15334 12.9395C6.18214 12.9907 6.16847 13.0557 6.12111 13.0908C5.91847 13.2412 5.78907 13.4795 5.78907 13.7495C5.78858 14.2002 6.15285 14.5704 6.6094 14.5704C7.05667 14.5704 7.43266 14.208 7.42973 13.7447C7.42826 13.4917 7.30912 13.2476 7.0972 13.0903C7.04984 13.0552 7.03665 12.9902 7.06546 12.9395L7.14261 12.8023C7.17679 12.7417 7.25589 12.7236 7.31254 12.7642ZM6.80471 13.7891V12.6172C6.80471 12.5522 6.75247 12.5 6.68752 12.5H6.53127C6.46633 12.5 6.41408 12.5522 6.41408 12.6172V13.7891C6.41408 13.854 6.46633 13.9063 6.53127 13.9063H6.68752C6.75247 13.9063 6.80471 13.854 6.80471 13.7891Z" fill="white"/>
<circle cx="6.64848" cy="13.6504" r="2.15004" stroke="white" stroke-width="0.2"/>
</svg>
