<svg width="24" height="25" viewBox="0 0 24 25" fill="none" xmlns="http://www.w3.org/2000/svg">
<g id="calendar 1" clip-path="url(#clip0_32_123215)">
<path id="Vector" d="M21.2493 4.1258C21.2493 3.25107 20.5402 2.54199 19.6654 2.54199H18.6345C17.9966 2.54199 5.38931 2.54199 4.96795 2.54199C4.58194 2.54199 2.08477 2.54199 1.58386 2.54199C0.709219 2.54199 0 3.25112 0 4.1258V22.2073C0 22.66 0.190266 23.068 0.494813 23.3566H19.6654V23.7911H22.4398C23.1214 23.7911 23.7025 23.3604 23.9258 22.7563C24.1109 22.2672 24.1763 23.2024 21.2493 4.1258Z" fill="#BABABA"/>
<path id="Vector_2" d="M22.2165 22.2073V10.4295L21.2493 4.1258C21.2493 3.25107 20.5402 2.54199 19.6654 2.54199C19.1469 2.54199 6.65735 2.54199 5.93519 2.54199H4.96802H4.58116C3.68529 2.54199 3.98664 2.54199 2.55114 2.54199C1.6765 2.54199 0.967285 3.25107 0.967285 4.1258V22.2073C0.967285 22.66 1.15755 23.068 1.4621 23.3566H19.6655V23.7911H20.6327C21.5073 23.7912 22.2165 23.0821 22.2165 22.2073Z" fill="#A8A8A8"/>
<path id="Vector_3" d="M19.6654 2.54199C19.1112 2.54199 5.8807 2.54199 4.96795 2.54199C4.42148 2.54199 1.95333 2.54199 1.58386 2.54199C0.709219 2.54199 0 3.25112 0 4.1258V22.2073C0 23.0821 0.709219 23.7911 1.58386 23.7911H19.6654C20.5401 23.7911 21.2493 23.0821 21.2493 22.2073V4.1258C21.2493 3.25112 20.5401 2.54199 19.6654 2.54199Z" fill="#E6E6E6"/>
<path id="Vector_4" d="M0.967172 22.2073V4.1258C0.967172 3.25107 1.67639 2.54199 2.55103 2.54199C2.00588 2.54199 2.13075 2.54199 1.58386 2.54199C0.709219 2.54199 0 3.25112 0 4.1258V22.2073C0 23.0821 0.709219 23.7911 1.58386 23.7911H2.55103C1.67644 23.7912 0.967172 23.0821 0.967172 22.2073Z" fill="#CCCBCA"/>
<path id="Vector_5" d="M19.6654 2.54199C19.0362 2.54199 6.01819 2.54199 4.96795 2.54199C1.21809 2.54199 5.09405 2.54199 1.58386 2.54199C0.709219 2.54199 0 3.25112 0 4.1258V8.19437H21.2493V4.1258C21.2493 3.25112 20.5401 2.54199 19.6654 2.54199Z" fill="#EA473B"/>
<path id="Vector_6" d="M0.967172 4.1258C0.967172 3.25107 1.67639 2.54199 2.55103 2.54199C2.00588 2.54199 2.13075 2.54199 1.58386 2.54199C0.709219 2.54199 0 3.25112 0 4.1258V8.19437H0.967172V4.1258Z" fill="#D63322"/>
<g id="Group">
<path id="Vector_7" d="M16.961 3.95801V4.28773C16.961 4.60826 16.7012 4.62626 16.3807 4.62626H16.1872C15.8667 4.62626 15.6069 4.60826 15.6069 4.28773V3.95805C15.3001 4.17218 15.0991 4.52759 15.0991 4.93015C15.0991 5.58452 15.6296 6.11496 16.2839 6.11496C17.4444 6.11491 17.9054 4.61707 16.961 3.95801Z" fill="#414356"/>
<path id="Vector_8" d="M10.9644 3.95801V4.28773C10.9644 4.60826 10.7046 4.57788 10.3841 4.57788H10.1906C9.87016 4.57788 9.61034 4.60826 9.61034 4.28773V3.95805C9.30349 4.17218 9.10254 4.52759 9.10254 4.93015C9.10254 5.58452 9.63302 6.11496 10.2874 6.11496C10.9417 6.11496 11.4722 5.58452 11.4722 4.93015C11.4722 4.52759 11.2712 4.17213 10.9644 3.95801Z" fill="#414356"/>
<path id="Vector_9" d="M4.9679 3.95801V4.28773C4.9679 4.66141 4.61619 4.62626 4.19413 4.62626C3.87365 4.62626 3.61382 4.60826 3.61382 4.28773V3.95805C2.66849 4.61777 3.13185 6.11496 4.29083 6.11496C4.94521 6.11496 5.47565 5.58452 5.47565 4.93015C5.47565 4.52759 5.27469 4.17213 4.9679 3.95801Z" fill="#414356"/>
</g>
<g id="Group_2">
<path id="Vector_10" d="M16.1147 4.93016C16.1147 4.90771 16.1156 4.88549 16.1168 4.86337C15.8296 4.82854 15.6069 4.58437 15.6069 4.28774V3.95807C15.3001 4.17219 15.0991 4.5276 15.0991 4.93016C15.0991 5.58454 15.6296 6.11498 16.2839 6.11498C16.4657 6.11498 16.6378 6.07396 16.7917 6.00079C16.3915 5.81062 16.1147 5.40276 16.1147 4.93016Z" fill="#2F3242"/>
<path id="Vector_11" d="M10.1181 4.93016C10.1181 4.90771 10.119 4.88549 10.1202 4.86337C9.83299 4.82854 9.61034 4.58437 9.61034 4.28774V3.95807C9.30349 4.17219 9.10254 4.5276 9.10254 4.93016C9.10254 5.58454 9.63302 6.11498 10.2874 6.11498C10.4691 6.11498 10.6412 6.07396 10.7951 6.00079C10.3949 5.81062 10.1181 5.40276 10.1181 4.93016Z" fill="#2F3242"/>
<path id="Vector_12" d="M4.12361 4.86337C3.83641 4.82854 3.61375 4.58437 3.61375 4.28774V3.95807C3.30691 4.17219 3.10596 4.5276 3.10596 4.93016C3.10596 5.80279 4.01739 6.37199 4.79852 6.00079C4.37411 5.79908 4.09614 5.35822 4.12361 4.86337Z" fill="#2F3242"/>
</g>
<path id="Vector_13" d="M21.2494 8.19421H0V9.54829H21.2494V8.19421Z" fill="#F77C79"/>
<path id="Vector_14" d="M0.967172 8.19421H0V9.54829H0.967172V8.19421Z" fill="#DD6464"/>
<path id="SVGCleanerId_0" d="M4.38753 0.483459C4.70807 0.483459 4.96785 0.743288 4.96785 1.06377V4.28774C4.96785 4.60827 4.70807 4.86805 4.38753 4.86805H4.19408C3.8736 4.86805 3.61377 4.60827 3.61377 4.28774V1.06377C3.61377 0.743288 3.8736 0.483459 4.19408 0.483459H4.38753Z" fill="#585A60"/>
<path id="SVGCleanerId_1" d="M10.3841 0.483459C10.7046 0.483459 10.9644 0.743288 10.9644 1.06377V4.28774C10.9644 4.60827 10.7046 4.86805 10.3841 4.86805H10.1907C9.87018 4.86805 9.61035 4.60827 9.61035 4.28774V1.06377C9.61035 0.743288 9.87018 0.483459 10.1907 0.483459H10.3841Z" fill="#585A60"/>
<path id="SVGCleanerId_2" d="M16.3807 0.483459C16.7012 0.483459 16.961 0.743288 16.961 1.06377V4.28774C16.961 4.60827 16.7012 4.86805 16.3807 4.86805H16.1872C15.8668 4.86805 15.6069 4.60827 15.6069 4.28774V1.06377C15.6069 0.743288 15.8668 0.483459 16.1872 0.483459H16.3807Z" fill="#585A60"/>
<g id="Group_3">
<path id="SVGCleanerId_0_1_" d="M4.38753 0.483459C4.70807 0.483459 4.96785 0.743288 4.96785 1.06377V4.28774C4.96785 4.60827 4.70807 4.86805 4.38753 4.86805H4.19408C3.8736 4.86805 3.61377 4.60827 3.61377 4.28774V1.06377C3.61377 0.743288 3.8736 0.483459 4.19408 0.483459H4.38753Z" fill="#585A60"/>
</g>
<g id="Group_4">
<path id="SVGCleanerId_1_1_" d="M10.3841 0.483459C10.7046 0.483459 10.9644 0.743288 10.9644 1.06377V4.28774C10.9644 4.60827 10.7046 4.86805 10.3841 4.86805H10.1907C9.87018 4.86805 9.61035 4.60827 9.61035 4.28774V1.06377C9.61035 0.743288 9.87018 0.483459 10.1907 0.483459H10.3841Z" fill="#585A60"/>
</g>
<g id="Group_5">
<path id="SVGCleanerId_2_1_" d="M16.3807 0.483459C16.7012 0.483459 16.961 0.743288 16.961 1.06377V4.28774C16.961 4.60827 16.7012 4.86805 16.3807 4.86805H16.1872C15.8668 4.86805 15.6069 4.60827 15.6069 4.28774V1.06377C15.6069 0.743288 15.8668 0.483459 16.1872 0.483459H16.3807Z" fill="#585A60"/>
</g>
<g id="Group_6">
<path id="Vector_15" d="M4.29079 4.28774V1.06377C4.29079 0.829678 4.42972 0.628491 4.62932 0.536709C4.55563 0.502866 4.47393 0.483459 4.38753 0.483459H4.19408C3.8736 0.483459 3.61377 0.743288 3.61377 1.06377V4.28774C3.61377 4.60827 3.8736 4.86805 4.19408 4.86805H4.38753C4.47397 4.86805 4.55568 4.84865 4.62932 4.8148C4.42972 4.72307 4.29079 4.52183 4.29079 4.28774Z" fill="#414356"/>
<path id="Vector_16" d="M10.2874 4.28774V1.06377C10.2874 0.829678 10.4263 0.628491 10.6259 0.536709C10.5522 0.502866 10.4705 0.483459 10.3841 0.483459H10.1907C9.87018 0.483459 9.61035 0.743288 9.61035 1.06377V4.28774C9.61035 4.60827 9.87018 4.86805 10.1907 4.86805H10.3841C10.4706 4.86805 10.5523 4.84865 10.6259 4.8148C10.4263 4.72307 10.2874 4.52183 10.2874 4.28774Z" fill="#414356"/>
<path id="Vector_17" d="M16.2839 4.28774V1.06377C16.2839 0.829678 16.4229 0.628491 16.6225 0.536709C16.5488 0.502866 16.4671 0.483459 16.3807 0.483459H16.1872C15.8668 0.483459 15.6069 0.743288 15.6069 1.06377V4.28774C15.6069 4.60827 15.8668 4.86805 16.1872 4.86805H16.3807C16.4671 4.86805 16.5488 4.84865 16.6225 4.8148C16.4229 4.72307 16.2839 4.52183 16.2839 4.28774Z" fill="#414356"/>
</g>
<g id="Group_7">
<path id="Vector_18" d="M7.90325 11.7706H6.70915C6.50886 11.7706 6.34644 11.933 6.34644 12.1333C6.34644 12.3336 6.50886 12.4961 6.70915 12.4961H7.90325C8.10359 12.4961 8.26597 12.3337 8.26597 12.1333C8.26597 11.9331 8.10359 11.7706 7.90325 11.7706Z" fill="#585A60"/>
<path id="Vector_19" d="M11.223 11.7706H10.0287C9.82844 11.7706 9.66602 11.933 9.66602 12.1333C9.66602 12.3336 9.82844 12.4961 10.0287 12.4961H11.223C11.4233 12.4961 11.5857 12.3337 11.5857 12.1333C11.5856 11.9331 11.4233 11.7706 11.223 11.7706Z" fill="#585A60"/>
<path id="Vector_20" d="M14.5428 11.7706H13.3486C13.1483 11.7706 12.9858 11.933 12.9858 12.1333C12.9858 12.3336 13.1483 12.4961 13.3486 12.4961H14.5428C14.7431 12.4961 14.9056 12.3337 14.9056 12.1333C14.9056 11.9331 14.7431 11.7706 14.5428 11.7706Z" fill="#585A60"/>
<path id="Vector_21" d="M17.8624 11.7706H16.6681C16.4678 11.7706 16.3054 11.933 16.3054 12.1333C16.3054 12.3336 16.4678 12.4961 16.6681 12.4961H17.8624C18.0627 12.4961 18.2251 12.3337 18.2251 12.1333C18.225 11.9331 18.0627 11.7706 17.8624 11.7706Z" fill="#585A60"/>
<path id="Vector_22" d="M4.58381 14.6928H3.38957C3.18928 14.6928 3.02686 14.8552 3.02686 15.0555C3.02686 15.2558 3.18928 15.4182 3.38957 15.4182H4.58381C4.78415 15.4182 4.94653 15.2559 4.94653 15.0555C4.94648 14.8552 4.78415 14.6928 4.58381 14.6928Z" fill="#585A60"/>
<path id="Vector_23" d="M7.90325 14.6928H6.70915C6.50886 14.6928 6.34644 14.8552 6.34644 15.0555C6.34644 15.2558 6.50886 15.4182 6.70915 15.4182H7.90325C8.10359 15.4182 8.26597 15.2559 8.26597 15.0555C8.26597 14.8552 8.10359 14.6928 7.90325 14.6928Z" fill="#585A60"/>
<path id="Vector_24" d="M11.223 14.6928H10.0287C9.82844 14.6928 9.66602 14.8552 9.66602 15.0555C9.66602 15.2558 9.82844 15.4182 10.0287 15.4182H11.223C11.4233 15.4182 11.5857 15.2559 11.5857 15.0555C11.5856 14.8552 11.4233 14.6928 11.223 14.6928Z" fill="#585A60"/>
<path id="Vector_25" d="M14.5428 14.6928H13.3486C13.1483 14.6928 12.9858 14.8552 12.9858 15.0555C12.9858 15.2558 13.1483 15.4182 13.3486 15.4182H14.5428C14.7431 15.4182 14.9056 15.2559 14.9056 15.0555C14.9056 14.8552 14.7431 14.6928 14.5428 14.6928Z" fill="#585A60"/>
<path id="Vector_26" d="M17.8624 14.6928H16.6681C16.4678 14.6928 16.3054 14.8552 16.3054 15.0555C16.3054 15.2558 16.4678 15.4182 16.6681 15.4182H17.8624C18.0627 15.4182 18.2251 15.2559 18.2251 15.0555C18.225 14.8552 18.0627 14.6928 17.8624 14.6928Z" fill="#585A60"/>
<path id="Vector_27" d="M4.58381 17.615H3.38957C3.18928 17.615 3.02686 17.7774 3.02686 17.9777C3.02686 18.1781 3.18928 18.3404 3.38957 18.3404H4.58381C4.78415 18.3404 4.94653 18.1781 4.94653 17.9777C4.94653 17.7774 4.78415 17.615 4.58381 17.615Z" fill="#585A60"/>
<path id="Vector_28" d="M7.90325 17.615H6.70915C6.50886 17.615 6.34644 17.7774 6.34644 17.9777C6.34644 18.1781 6.50886 18.3404 6.70915 18.3404H7.90325C8.10359 18.3404 8.26597 18.1781 8.26597 17.9777C8.26597 17.7774 8.10359 17.615 7.90325 17.615Z" fill="#585A60"/>
<path id="Vector_29" d="M11.223 17.615H10.0287C9.82844 17.615 9.66602 17.7774 9.66602 17.9777C9.66602 18.1781 9.82844 18.3404 10.0287 18.3404H11.223C11.4233 18.3404 11.5857 18.1781 11.5857 17.9777C11.5857 17.7774 11.4233 17.615 11.223 17.615Z" fill="#585A60"/>
<path id="Vector_30" d="M14.5428 17.615H13.3486C13.1483 17.615 12.9858 17.7774 12.9858 17.9777C12.9858 18.1781 13.1483 18.3404 13.3486 18.3404H14.5428C14.7431 18.3404 14.9056 18.1781 14.9056 17.9777C14.9056 17.7774 14.7431 17.615 14.5428 17.615Z" fill="#585A60"/>
<path id="Vector_31" d="M17.8624 17.615H16.6681C16.4678 17.615 16.3054 17.7774 16.3054 17.9777C16.3054 18.1781 16.4678 18.3404 16.6681 18.3404H17.8624C18.0627 18.3404 18.2251 18.1781 18.2251 17.9777C18.2251 17.7774 18.0627 17.615 17.8624 17.615Z" fill="#585A60"/>
<path id="Vector_32" d="M4.58381 20.5372H3.38957C3.18928 20.5372 3.02686 20.6996 3.02686 20.8999C3.02686 21.1002 3.18928 21.2627 3.38957 21.2627H4.58381C4.78415 21.2627 4.94653 21.1003 4.94653 20.8999C4.94648 20.6996 4.78415 20.5372 4.58381 20.5372Z" fill="#585A60"/>
<path id="Vector_33" d="M7.90325 20.5372H6.70915C6.50886 20.5372 6.34644 20.6996 6.34644 20.8999C6.34644 21.1002 6.50886 21.2627 6.70915 21.2627H7.90325C8.10359 21.2627 8.26597 21.1003 8.26597 20.8999C8.26597 20.6996 8.10359 20.5372 7.90325 20.5372Z" fill="#585A60"/>
<path id="Vector_34" d="M11.223 20.5372H10.0287C9.82844 20.5372 9.66602 20.6996 9.66602 20.8999C9.66602 21.1002 9.82844 21.2627 10.0287 21.2627H11.223C11.4233 21.2627 11.5857 21.1003 11.5857 20.8999C11.5856 20.6996 11.4233 20.5372 11.223 20.5372Z" fill="#585A60"/>
<path id="Vector_35" d="M14.5428 20.5372H13.3486C13.1483 20.5372 12.9858 20.6996 12.9858 20.8999C12.9858 21.1002 13.1483 21.2627 13.3486 21.2627H14.5428C14.7431 21.2627 14.9056 21.1003 14.9056 20.8999C14.9056 20.6996 14.7431 20.5372 14.5428 20.5372Z" fill="#585A60"/>
</g>
</g>
<defs>
<clipPath id="clip0_32_123215">
<rect width="24" height="24" fill="white" transform="translate(0 0.137268)"/>
</clipPath>
</defs>
</svg>
