<svg width="20" height="20" viewBox="0 0 20 20" fill="none" xmlns="http://www.w3.org/2000/svg">
<rect x="1" y="1" width="18" height="18" rx="4" fill="#01337A" stroke="white" stroke-width="2"/>
<circle cx="14.15" cy="6.65005" r="2.65005" fill="white"/>
<path d="M14.8125 5.76417C15.1202 5.9839 15.3204 6.34328 15.3204 6.75002C15.3204 7.418 14.7793 7.95952 14.1118 7.96098C13.4453 7.96245 12.8994 7.41898 12.8984 6.75198C12.898 6.34523 13.0981 5.98487 13.4053 5.76465C13.4624 5.72413 13.542 5.74122 13.5762 5.80225L13.6533 5.93946C13.6821 5.99073 13.6685 6.05567 13.6211 6.09083C13.4185 6.24122 13.2891 6.47951 13.2891 6.74954C13.2886 7.20023 13.6528 7.57035 14.1094 7.57035C14.5567 7.57035 14.9327 7.20804 14.9297 6.74465C14.9283 6.49172 14.8091 6.24757 14.5972 6.09034C14.5498 6.05519 14.5367 5.99024 14.5655 5.93946L14.6426 5.80225C14.6768 5.7417 14.7559 5.72364 14.8125 5.76417ZM14.3047 6.78909V5.61719C14.3047 5.55225 14.2525 5.5 14.1875 5.5H14.0313C13.9663 5.5 13.9141 5.55225 13.9141 5.61719V6.78909C13.9141 6.85403 13.9663 6.90628 14.0313 6.90628H14.1875C14.2525 6.90628 14.3047 6.85403 14.3047 6.78909Z" fill="#01337A"/>
<circle cx="14.1485" cy="6.65043" r="2.15004" stroke="#01337A" stroke-width="0.2"/>
<circle cx="6.15005" cy="6.65005" r="2.65005" fill="white"/>
<path d="M6.81254 5.76417C7.12016 5.9839 7.32036 6.34328 7.32036 6.75002C7.32036 7.418 6.77933 7.95952 6.11184 7.96098C5.44532 7.96245 4.89941 7.41898 4.89844 6.75198C4.89795 6.34523 5.09815 5.98487 5.40528 5.76465C5.46241 5.72413 5.54201 5.74122 5.57619 5.80225L5.65334 5.93946C5.68214 5.99073 5.66847 6.05567 5.62111 6.09083C5.41847 6.24122 5.28907 6.47951 5.28907 6.74954C5.28858 7.20023 5.65285 7.57035 6.1094 7.57035C6.55667 7.57035 6.93266 7.20804 6.92973 6.74465C6.92826 6.49172 6.80912 6.24757 6.5972 6.09034C6.54984 6.05519 6.53665 5.99024 6.56546 5.93946L6.64261 5.80225C6.67679 5.7417 6.75589 5.72364 6.81254 5.76417ZM6.30471 6.78909V5.61719C6.30471 5.55225 6.25247 5.5 6.18752 5.5H6.03127C5.96633 5.5 5.91408 5.55225 5.91408 5.61719V6.78909C5.91408 6.85403 5.96633 6.90628 6.03127 6.90628H6.18752C6.25247 6.90628 6.30471 6.85403 6.30471 6.78909Z" fill="#01337A"/>
<circle cx="6.14848" cy="6.65043" r="2.15004" stroke="#01337A" stroke-width="0.2"/>
<circle cx="6.15005" cy="13.65" r="2.65005" fill="white"/>
<path d="M6.81254 12.7642C7.12016 12.9839 7.32036 13.3433 7.32036 13.75C7.32036 14.418 6.77933 14.9595 6.11184 14.961C5.44532 14.9624 4.89941 14.419 4.89844 13.752C4.89795 13.3452 5.09815 12.9849 5.40528 12.7647C5.46241 12.7241 5.54201 12.7412 5.57619 12.8023L5.65334 12.9395C5.68214 12.9907 5.66847 13.0557 5.62111 13.0908C5.41847 13.2412 5.28907 13.4795 5.28907 13.7495C5.28858 14.2002 5.65285 14.5704 6.1094 14.5704C6.55667 14.5704 6.93266 14.208 6.92973 13.7447C6.92826 13.4917 6.80912 13.2476 6.5972 13.0903C6.54984 13.0552 6.53665 12.9902 6.56546 12.9395L6.64261 12.8023C6.67679 12.7417 6.75589 12.7236 6.81254 12.7642ZM6.30471 13.7891V12.6172C6.30471 12.5522 6.25247 12.5 6.18752 12.5H6.03127C5.96633 12.5 5.91408 12.5522 5.91408 12.6172V13.7891C5.91408 13.854 5.96633 13.9063 6.03127 13.9063H6.18752C6.25247 13.9063 6.30471 13.854 6.30471 13.7891Z" fill="#01337A"/>
<circle cx="6.14848" cy="13.6504" r="2.15004" stroke="#01337A" stroke-width="0.2"/>
<circle cx="14.15" cy="13.65" r="2.65005" fill="white"/>
<path d="M14.8125 12.7642C15.1202 12.9839 15.3204 13.3433 15.3204 13.75C15.3204 14.418 14.7793 14.9595 14.1118 14.961C13.4453 14.9624 12.8994 14.419 12.8984 13.752C12.898 13.3452 13.0981 12.9849 13.4053 12.7647C13.4624 12.7241 13.542 12.7412 13.5762 12.8023L13.6533 12.9395C13.6821 12.9907 13.6685 13.0557 13.6211 13.0908C13.4185 13.2412 13.2891 13.4795 13.2891 13.7495C13.2886 14.2002 13.6528 14.5704 14.1094 14.5704C14.5567 14.5704 14.9327 14.208 14.9297 13.7447C14.9283 13.4917 14.8091 13.2476 14.5972 13.0903C14.5498 13.0552 14.5367 12.9902 14.5655 12.9395L14.6426 12.8023C14.6768 12.7417 14.7559 12.7236 14.8125 12.7642ZM14.3047 13.7891V12.6172C14.3047 12.5522 14.2525 12.5 14.1875 12.5H14.0313C13.9663 12.5 13.9141 12.5522 13.9141 12.6172V13.7891C13.9141 13.854 13.9663 13.9063 14.0313 13.9063H14.1875C14.2525 13.9063 14.3047 13.854 14.3047 13.7891Z" fill="#01337A"/>
<circle cx="14.1485" cy="13.6504" r="2.15004" stroke="#01337A" stroke-width="0.2"/>
</svg>
